<?xml version="1.0" encoding="UTF-8"?>
<svg id="_レイヤー_2" data-name="レイヤー_2" xmlns="http://www.w3.org/2000/svg" viewBox="0 0 313.53 197.59">
  <defs>
    <style>
      .cls-1 {
        fill: #f6f9fa;
        stroke: #999;
        stroke-linecap: round;
        stroke-linejoin: round;
        stroke-width: 2.83px;
      }
    </style>
  </defs>
  <g id="_レイヤー_2-2" data-name="レイヤー_2">
    <path class="cls-1" d="M30.19,38.53C59.59-9.52-.81-5.83,1.8,22.17c-3.64,20.14,20.01,19.03,20.01,19.03-7.36.21-22.96,41.01,8.17,40.18,0,0-9.48,8.83-3.88,28.21,0,0,4.31,15.29,22.4,10.12,0,0-6.25,24.34,19.38,23.04,0,0-5.6,24.34,20.03,18.52,0,0-4.09,16.8,17.66,13.14-4.74,6.06,13.53,20.13,25.2,10.12-4.59,4.54,15.48,20.56,26.27,4.95-.63,4.7,26.08,13.46,24.77-6.46.76,7.82,33.62,5.06,25.41-9.69,0,0,4.09,6.25,12.71-.86,0,0,7.75-3.66,6.89-10.55,3.1,3.8,26.54-5,19.17-18.95,2.14,4.78,25.74-6.8,19.6-21.97,0,0,16.94,2.73,21.15-11.92,0,0,4.95-21.25-3.11-27.47,0,0,16.67,1.65,18.32-18.13,0,0,2.2-16.67-9.89-21.8,0,0,33.52-2.2,13.92-34.07-8.88-15.13-48.21-1.6-23.63,30.04-11.86-2.01-35.58,19.17-8.79,39.74-15.03-4.02-27.91,11.87-15.93,33.89-9.8-2.94-35.69,1.03-20.15,23.44,0,0-26.19-10.26-16.3,19.78,0,0-24.54-21.06-19.41,10.07,0,0-6.23-12.09-19.23-6.04,0,0-6.41-.18-3.66,10.99,0,0-16.48-21.8-22.35,3.48,0,0-4.95-24.91-21.25-4.03,5.15-6.76-12.99-21.32-23.42-3.74,0,0,6.95-32.34-18.66-10.2,0,0,8.68-32.99-17.04-19.21,0,0,20.37-29.73-20.83-24.43,0,0,21.21-37.12-16.72-33.85,0,0,35.83-29.92-8.4-39.02Z"/>
  </g>
</svg>