<svg width="40" height="40" viewBox="0 0 40 40" fill="none" xmlns="http://www.w3.org/2000/svg">
<mask id="mask0_0_49" style="mask-type:alpha" maskUnits="userSpaceOnUse" x="0" y="0" width="40" height="40">
<rect width="40" height="40" fill="#D9D9D9"/>
</mask>
<g mask="url(#mask0_0_49)">
<path d="M28.3333 5C30.1667 5 31.7361 5.65278 33.0417 6.95833C34.3472 8.26389 35 9.83333 35 11.6667C35 11.9722 34.9792 12.3819 34.9375 12.8958C34.8958 13.4097 34.8333 14 34.75 14.6667L32.4583 31.4583C32.3194 32.5139 31.8403 33.375 31.0208 34.0417C30.2014 34.7083 29.2639 35.0417 28.2083 35.0417C27.5694 35.0417 26.9792 34.9028 26.4375 34.625C25.8958 34.3472 25.4444 33.9583 25.0833 33.4583L20.625 26.9583C20.5694 26.8472 20.4792 26.7708 20.3542 26.7292C20.2292 26.6875 20.0972 26.6667 19.9583 26.6667C19.8472 26.6667 19.625 26.7917 19.2917 27.0417L14.9583 33.3333C14.5694 33.8889 14.0903 34.3125 13.5208 34.6042C12.9514 34.8958 12.3472 35.0417 11.7083 35.0417C10.6528 35.0417 9.72222 34.7014 8.91667 34.0208C8.11111 33.3403 7.63889 32.4722 7.5 31.4167L5.25 14.6667C5.16667 14 5.10417 13.4097 5.0625 12.8958C5.02083 12.3819 5 11.9722 5 11.6667C5 9.83333 5.65278 8.26389 6.95833 6.95833C8.26389 5.65278 9.83333 5 11.6667 5C12.6667 5 13.4653 5.13194 14.0625 5.39583C14.6597 5.65972 15.2361 5.94444 15.7917 6.25C16.3472 6.55556 16.9375 6.84028 17.5625 7.10417C18.1875 7.36806 19 7.5 20 7.5C21 7.5 21.8125 7.36806 22.4375 7.10417C23.0625 6.84028 23.6528 6.55556 24.2083 6.25C24.7639 5.94444 25.3472 5.65972 25.9583 5.39583C26.5694 5.13194 27.3611 5 28.3333 5Z" fill="#45AAF5"/>
</g>
</svg>
