<svg width="32" height="32" viewBox="0 0 32 32" fill="none" xmlns="http://www.w3.org/2000/svg">
<mask id="mask0_0_23" style="mask-type:alpha" maskUnits="userSpaceOnUse" x="0" y="0" width="32" height="32">
<rect width="32" height="32" fill="#D9D9D9"/>
</mask>
<g mask="url(#mask0_0_23)">
<path d="M22.6667 4C24.1333 4 25.3889 4.52222 26.4333 5.56667C27.4778 6.61111 28 7.86667 28 9.33333C28 9.57778 27.9833 9.90556 27.95 10.3167C27.9167 10.7278 27.8667 11.2 27.8 11.7333L25.9667 25.1667C25.8556 26.0111 25.4722 26.7 24.8167 27.2333C24.1611 27.7667 23.4111 28.0333 22.5667 28.0333C22.0556 28.0333 21.5833 27.9222 21.15 27.7C20.7167 27.4778 20.3556 27.1667 20.0667 26.7667L16.5 21.5667C16.4556 21.4778 16.3833 21.4167 16.2833 21.3833C16.1833 21.35 16.0778 21.3333 15.9667 21.3333C15.8778 21.3333 15.7 21.4333 15.4333 21.6333L11.9667 26.6667C11.6556 27.1111 11.2722 27.45 10.8167 27.6833C10.3611 27.9167 9.87778 28.0333 9.36667 28.0333C8.52222 28.0333 7.77778 27.7611 7.13333 27.2167C6.48889 26.6722 6.11111 25.9778 6 25.1333L4.2 11.7333C4.13333 11.2 4.08333 10.7278 4.05 10.3167C4.01667 9.90556 4 9.57778 4 9.33333C4 7.86667 4.52222 6.61111 5.56667 5.56667C6.61111 4.52222 7.86667 4 9.33333 4C10.1333 4 10.7722 4.10556 11.25 4.31667C11.7278 4.52778 12.1889 4.75556 12.6333 5C13.0778 5.24444 13.55 5.47222 14.05 5.68333C14.55 5.89444 15.2 6 16 6C16.8 6 17.45 5.89444 17.95 5.68333C18.45 5.47222 18.9222 5.24444 19.3667 5C19.8111 4.75556 20.2778 4.52778 20.7667 4.31667C21.2556 4.10556 21.8889 4 22.6667 4Z" fill="#B3B3B3"/>
</g>
</svg>
