<svg width="200" height="217" viewBox="0 0 200 217" fill="none" xmlns="http://www.w3.org/2000/svg">
<g clip-path="url(#clip0_488_1050)">
<path d="M140.163 94.673C152.183 94.673 161.926 84.9294 161.926 72.9101C161.926 60.8908 152.183 51.1472 140.163 51.1472C128.144 51.1472 118.4 60.8908 118.4 72.9101C118.4 84.9294 128.144 94.673 140.163 94.673Z" fill="#FF6584"/>
<path d="M199.86 89.1363C199.908 89.1276 199.944 89.0941 200 89.1026C199.976 89.0084 199.944 88.9163 199.905 88.8271C199.836 88.9215 199.765 89.0178 199.703 89.1022L199.86 89.1363Z" fill="white"/>
<path d="M53.8932 124.419C54.0203 129.167 54.8156 133.873 56.2557 138.399C56.2886 138.504 56.3231 138.608 56.3576 138.713H65.1744C65.165 138.619 65.1556 138.514 65.1462 138.399C64.5583 131.641 61.1689 90.5076 65.2214 83.4733C64.8671 84.044 53.2096 102.944 53.8932 124.419Z" fill="#E6E6E6"/>
<path d="M54.5542 138.399C54.6278 138.504 54.7047 138.609 54.783 138.713H61.3972C61.347 138.624 61.289 138.519 61.2216 138.399C60.1289 136.427 56.8948 130.531 53.8926 124.419C50.6663 117.85 47.7064 111.032 47.9557 108.564C47.8789 109.121 45.6465 126.087 54.5542 138.399Z" fill="#E6E6E6"/>
<path d="M123.284 139.53C123.174 143.669 122.48 147.773 121.225 151.719C121.196 151.81 121.166 151.9 121.136 151.992H113.449C113.457 151.91 113.466 151.818 113.474 151.719C113.986 145.827 116.941 109.966 113.408 103.833C113.717 104.331 123.88 120.808 123.284 139.53Z" fill="#E6E6E6"/>
<path d="M122.708 151.719C122.644 151.81 122.577 151.902 122.508 151.992H116.742C116.786 151.914 116.836 151.823 116.895 151.719C117.848 149.999 120.667 144.859 123.285 139.53C126.098 133.803 128.678 127.859 128.461 125.708C128.528 126.193 130.474 140.984 122.708 151.719Z" fill="#E6E6E6"/>
<path d="M35.3974 17.6645L38.982 14.7976C36.1973 14.4903 35.0531 16.009 34.5848 17.2111C32.4093 16.3078 30.041 17.4917 30.041 17.4917L37.2131 20.0954C36.8513 19.129 36.2214 18.2857 35.3974 17.6645Z" fill="#3F3D56"/>
<path d="M143.362 2.90713L146.947 0.0401509C144.162 -0.267078 143.018 1.25164 142.55 2.45371C140.374 1.55036 138.006 2.73425 138.006 2.73425L145.178 5.33797C144.816 4.37155 144.186 3.52832 143.362 2.90713Z" fill="#3F3D56"/>
<path d="M196.103 116.283C196.103 118.658 196.021 121.014 195.855 123.351C194.578 141.786 188.186 159.5 177.397 174.503C175.987 176.471 174.506 178.383 172.955 180.241C168.936 185.061 164.474 189.493 159.628 193.479L138.383 181.013L125.681 151.367C125.681 151.367 144.633 112.994 196.07 113.689C196.091 114.551 196.102 115.415 196.103 116.283Z" fill="#3F3D56"/>
<path d="M195.855 123.351C194.878 137.127 191.055 150.551 184.63 162.776C178.204 175.001 169.314 185.761 158.521 194.377L138.784 182.797L127.52 156.504C127.52 156.504 145.773 119.547 195.855 123.351Z" fill="#17A1FA"/>
<path d="M177.396 174.503C175.986 176.471 174.506 178.383 172.955 180.241C162.562 192.727 149.283 202.493 134.266 208.692C131.225 209.946 128.113 211.051 124.93 212.008C101.941 218.122 77.586 216.576 55.5551 207.604C33.7667 197.879 16.1596 180.704 5.89595 159.165C4.51661 156.265 3.27623 153.292 2.1748 150.245C21.3843 136.173 59.2364 116.022 100.491 135.602C111.902 141.019 122.092 145.956 131.06 150.413C153.816 161.693 168.961 169.825 177.396 174.503Z" fill="#3F3D56"/>
<path d="M172.955 180.241C162.211 193.116 148.403 203.083 132.799 209.224C117.196 215.366 100.298 217.484 83.6617 215.385C67.0249 213.286 51.1832 207.037 37.5939 197.213C24.0046 187.389 13.1042 174.305 5.89551 159.165C21.9387 146.478 58.9417 123.679 99.5493 142.95C109.992 147.906 119.316 152.424 127.519 156.504C151.434 168.357 166.165 176.412 172.955 180.241Z" fill="#17A1FA"/>
<path d="M144.638 203.693C141.279 205.555 137.815 207.224 134.265 208.692C122.185 213.67 109.243 216.224 96.1774 216.208C80.7165 216.202 65.4675 212.611 51.6279 205.719C37.7884 198.826 25.7352 188.819 16.415 176.483C40.2806 173.966 106.25 170.573 144.638 203.693Z" fill="#3F3D56"/>
<path d="M134.266 208.692C115.533 216.394 94.9042 218.229 75.1066 213.953C55.309 209.678 37.2756 199.493 23.3916 184.747C32.0722 183.472 100.224 174.714 134.266 208.692Z" fill="#17A1FA"/>
<path d="M179.343 60.87V60.8731C107.991 8.1181 26.2428 45.2498 25.6113 45.5349V45.5318C34.8771 36.2671 45.8796 28.9213 57.9885 23.9151C70.0975 18.9089 83.0751 16.3406 96.1781 16.3573C130.867 16.3573 161.427 34.0343 179.343 60.87Z" fill="#E6E6E6"/>
<path d="M31.334 118.22C43.4044 116.043 49.5896 94.3139 45.1492 69.6855C40.7088 45.0571 27.3241 26.8561 15.2538 29.0323C3.1834 31.2086 -3.00188 52.938 1.43856 77.5664C5.879 102.195 19.2636 120.396 31.334 118.22Z" fill="#3F3D56"/>
<path d="M34.4358 146.983C33.7203 92.8863 15.6204 42.1203 15.4378 41.6143L13.7871 42.2097C13.9689 42.7133 31.9694 93.2133 32.6812 147.006L34.4358 146.983Z" fill="#17A1FA"/>
<path d="M2.32325 67.5062L1.7832 69.1761L23.4522 76.1839L23.9923 74.5139L2.32325 67.5062Z" fill="#17A1FA"/>
<path d="M43.0843 65.6251L25.2305 79.7648L26.3201 81.1407L44.1739 67.001L43.0843 65.6251Z" fill="#17A1FA"/>
<path d="M89.3726 110.421C102.644 110.421 113.403 88.4681 113.403 61.3882C113.403 34.3083 102.644 12.3557 89.3726 12.3557C76.1007 12.3557 65.3418 34.3083 65.3418 61.3882C65.3418 88.4681 76.1007 110.421 89.3726 110.421Z" fill="#3F3D56"/>
<path d="M87.1534 141.647C96.778 83.9009 87.2503 26.3639 87.1529 25.7899L85.2807 26.107C85.3776 26.6782 94.8506 83.9129 85.2803 141.335L87.1534 141.647Z" fill="#17A1FA"/>
<path d="M68.2161 50.8447L67.3203 52.5194L89.0506 64.1426L89.9464 62.4679L68.2161 50.8447Z" fill="#17A1FA"/>
<path d="M111.985 56.6671L90.2568 68.2969L91.1531 69.9713L112.881 58.3415L111.985 56.6671Z" fill="#17A1FA"/>
<path d="M193.755 94.6484C184.938 89.6983 175.727 85.4866 166.215 82.0566C113.619 63.0249 61.4649 70.3599 41.0508 97.5971C56.9377 64.2295 113.625 53.7373 170.831 74.4366C177.489 76.8436 184.005 79.6272 190.347 82.7739C191.729 86.6574 192.867 90.6233 193.755 94.6484Z" fill="#E6E6E6"/>
<path d="M122.722 40.9534L126.306 38.0864C123.522 37.7791 122.377 39.2979 121.909 40.4999C119.734 39.5966 117.365 40.7805 117.365 40.7805L124.537 43.3842C124.175 42.4178 123.546 41.5745 122.722 40.9534Z" fill="#3F3D56"/>
</g>
<defs>
<clipPath id="clip0_488_1050">
<rect width="200" height="216.208" fill="white"/>
</clipPath>
</defs>
</svg>
