<svg width="40" height="40" viewBox="0 0 40 40" fill="none" xmlns="http://www.w3.org/2000/svg">
<mask id="mask0_513_3755" style="mask-type:alpha" maskUnits="userSpaceOnUse" x="0" y="0" width="40" height="40">
<path d="M0 0H40V40H0V0Z" fill="#D9D9D9"/>
</mask>
<g mask="url(#mask0_513_3755)">
<path d="M6.66699 23.3333C6.66699 20.1945 7.59755 17.1806 9.45866 14.2917C11.3198 11.4028 13.8753 8.87501 17.1253 6.70834C17.7364 6.29168 18.3684 6.27084 19.0212 6.64584C19.6739 7.02084 20.0003 7.58334 20.0003 8.33334V10.5C20.0003 11.4445 20.3267 12.2361 20.9795 12.875C21.6323 13.5139 22.4309 13.8333 23.3753 13.8333C23.8475 13.8333 24.2989 13.7292 24.7295 13.5208C25.16 13.3125 25.542 13.0139 25.8753 12.625C26.0975 12.3472 26.3823 12.1736 26.7295 12.1042C27.0767 12.0347 27.4031 12.1111 27.7087 12.3333C29.4587 13.5833 30.8337 15.1806 31.8337 17.125C32.8337 19.0695 33.3337 21.1389 33.3337 23.3333C33.3337 25.7778 32.7364 28.007 31.542 30.0208C30.3475 32.0347 28.7781 33.625 26.8337 34.7917C27.3059 34.125 27.6739 33.3958 27.9378 32.6042C28.2017 31.8125 28.3337 30.9722 28.3337 30.0833C28.3337 28.9722 28.1253 27.9236 27.7087 26.9375C27.292 25.9514 26.6948 25.0695 25.917 24.2917L20.0003 18.5L14.1253 24.2917C13.3198 25.0972 12.7087 25.9861 12.292 26.9583C11.8753 27.9306 11.667 28.9722 11.667 30.0833C11.667 30.9722 11.7989 31.8125 12.0628 32.6042C12.3267 33.3958 12.6948 34.125 13.167 34.7917C11.2225 33.625 9.6531 32.0347 8.45866 30.0208C7.26421 28.007 6.66699 25.7778 6.66699 23.3333ZM20.0003 23.1667L23.542 26.625C24.0142 27.0972 24.3753 27.625 24.6253 28.2083C24.8753 28.7917 25.0003 29.4167 25.0003 30.0833C25.0003 31.4445 24.5142 32.6042 23.542 33.5625C22.5698 34.5208 21.3892 35 20.0003 35C18.6114 35 17.4309 34.5208 16.4587 33.5625C15.4864 32.6042 15.0003 31.4445 15.0003 30.0833C15.0003 29.4445 15.1253 28.8264 15.3753 28.2292C15.6253 27.632 15.9864 27.0972 16.4587 26.625L20.0003 23.1667Z" fill="url(#paint0_linear_513_3755)"/>
</g>
<defs>
<linearGradient id="paint0_linear_513_3755" x1="20.0003" y1="6.37939" x2="20.0003" y2="35" gradientUnits="userSpaceOnUse">
<stop stop-color="#F58445"/>
<stop offset="1" stop-color="#F54545"/>
</linearGradient>
</defs>
</svg>
