<svg width="48" height="48" viewBox="0 0 48 48" fill="none" xmlns="http://www.w3.org/2000/svg">
<path fill-rule="evenodd" clip-rule="evenodd" d="M8 17.5C7.86739 17.5 7.74022 17.5527 7.64645 17.6464C7.55268 17.7402 7.5 17.8674 7.5 18V22C7.5 22.1326 7.55268 22.2598 7.64645 22.3536C7.74022 22.4473 7.86739 22.5 8 22.5H40C40.1326 22.5 40.2598 22.4473 40.3536 22.3536C40.4473 22.2598 40.5 22.1326 40.5 22V18C40.5 17.8674 40.4473 17.7402 40.3536 17.6464C40.2598 17.5527 40.1326 17.5 40 17.5H8ZM5.52513 15.5251C6.1815 14.8687 7.07174 14.5 8 14.5H40C40.9283 14.5 41.8185 14.8687 42.4749 15.5251C43.1313 16.1815 43.5 17.0717 43.5 18V22C43.5 22.9283 43.1313 23.8185 42.4749 24.4749C41.8185 25.1313 40.9283 25.5 40 25.5H8C7.07174 25.5 6.1815 25.1312 5.52513 24.4749C4.86875 23.8185 4.5 22.9283 4.5 22V18C4.5 17.0717 4.86875 16.1815 5.52513 15.5251Z" fill="#333132"/>
<path fill-rule="evenodd" clip-rule="evenodd" d="M24 14.5C24.8284 14.5 25.5 15.1716 25.5 16V42C25.5 42.8284 24.8284 43.5 24 43.5C23.1716 43.5 22.5 42.8284 22.5 42V16C22.5 15.1716 23.1716 14.5 24 14.5Z" fill="#333132"/>
<path fill-rule="evenodd" clip-rule="evenodd" d="M10 22.5C10.8284 22.5 11.5 23.1716 11.5 24V38C11.5 38.663 11.7634 39.2989 12.2322 39.7678C12.7011 40.2366 13.337 40.5 14 40.5H34C34.663 40.5 35.2989 40.2366 35.7678 39.7678C36.2366 39.2989 36.5 38.663 36.5 38V24C36.5 23.1716 37.1716 22.5 38 22.5C38.8284 22.5 39.5 23.1716 39.5 24V38C39.5 39.4587 38.9205 40.8576 37.8891 41.8891C36.8576 42.9205 35.4587 43.5 34 43.5H14C12.5413 43.5 11.1424 42.9205 10.1109 41.8891C9.07946 40.8576 8.5 39.4587 8.5 38V24C8.5 23.1716 9.17157 22.5 10 22.5Z" fill="#333132"/>
<path fill-rule="evenodd" clip-rule="evenodd" d="M19.3105 9.68968C17.919 8.14355 16.4185 7.47542 15.0261 7.49968L15 7.49991C14.0717 7.49991 13.1815 7.86866 12.5251 8.52503C11.8687 9.18141 11.5 10.0717 11.5 10.9999C11.5 11.9282 11.8687 12.8184 12.5251 13.4748C13.1815 14.1312 14.0717 14.4999 15 14.4999C15.8284 14.4999 16.5 15.1715 16.5 15.9999C16.5 16.8283 15.8284 17.4999 15 17.4999C13.2761 17.4999 11.6228 16.8151 10.4038 15.5961C9.18482 14.3771 8.5 12.7238 8.5 10.9999C8.5 9.276 9.18482 7.6227 10.4038 6.40371C11.6197 5.18783 13.2677 4.5034 14.9868 4.49992C17.4483 4.46138 19.7243 5.66484 21.5404 7.68278C22.4969 8.7455 23.3217 10.0256 24 11.462C24.6783 10.0256 25.5031 8.7455 26.4596 7.68278C28.2757 5.66484 30.5517 4.46138 33.0132 4.49992C34.7323 4.5034 36.3803 5.18783 37.5962 6.40371C38.8152 7.6227 39.5 9.276 39.5 10.9999C39.5 12.7238 38.8152 14.3771 37.5962 15.5961C36.3772 16.8151 34.7239 17.4999 33 17.4999C32.1716 17.4999 31.5 16.8283 31.5 15.9999C31.5 15.1715 32.1716 14.4999 33 14.4999C33.9283 14.4999 34.8185 14.1312 35.4749 13.4748C36.1313 12.8184 36.5 11.9282 36.5 10.9999C36.5 10.0717 36.1313 9.18141 35.4749 8.52503C34.8185 7.86866 33.9283 7.49991 33 7.49991L32.9739 7.49968C31.5815 7.47542 30.081 8.14355 28.6895 9.68968C27.2903 11.2443 26.1384 13.5485 25.4577 16.3536C25.2945 17.0263 24.6922 17.4999 24 17.4999C23.3078 17.4999 22.7055 17.0263 22.5423 16.3536C21.8616 13.5485 20.7097 11.2443 19.3105 9.68968Z" fill="#333132"/>
</svg>
