<svg width="48" height="48" viewBox="0 0 48 48" fill="none" xmlns="http://www.w3.org/2000/svg">
<path fill-rule="evenodd" clip-rule="evenodd" d="M10.1109 10.1109C11.1424 9.07946 12.5413 8.5 14 8.5H18C18.8284 8.5 19.5 9.17157 19.5 10C19.5 10.8284 18.8284 11.5 18 11.5H14C13.337 11.5 12.7011 11.7634 12.2322 12.2322C11.7634 12.7011 11.5 13.337 11.5 14V38C11.5 38.663 11.7634 39.2989 12.2322 39.7678C12.7011 40.2366 13.337 40.5 14 40.5H34C34.663 40.5 35.2989 40.2366 35.7678 39.7678C36.2366 39.2989 36.5 38.663 36.5 38V14C36.5 13.337 36.2366 12.7011 35.7678 12.2322C35.2989 11.7634 34.663 11.5 34 11.5H30C29.1716 11.5 28.5 10.8284 28.5 10C28.5 9.17157 29.1716 8.5 30 8.5H34C35.4587 8.5 36.8576 9.07946 37.8891 10.1109C38.9205 11.1424 39.5 12.5413 39.5 14V38C39.5 39.4587 38.9205 40.8576 37.8891 41.8891C36.8576 42.9205 35.4587 43.5 34 43.5H14C12.5413 43.5 11.1424 42.9205 10.1109 41.8891C9.07946 40.8576 8.5 39.4587 8.5 38V14C8.5 12.5413 9.07946 11.1424 10.1109 10.1109Z" fill="#333132"/>
<path fill-rule="evenodd" clip-rule="evenodd" d="M22 7.5C21.337 7.5 20.7011 7.76339 20.2322 8.23223C19.7634 8.70107 19.5 9.33696 19.5 10C19.5 10.663 19.7634 11.2989 20.2322 11.7678C20.7011 12.2366 21.337 12.5 22 12.5H26C26.663 12.5 27.2989 12.2366 27.7678 11.7678C28.2366 11.2989 28.5 10.663 28.5 10C28.5 9.33696 28.2366 8.70107 27.7678 8.23223C27.2989 7.76339 26.663 7.5 26 7.5H22ZM18.1109 6.11091C19.1424 5.07946 20.5413 4.5 22 4.5H26C27.4587 4.5 28.8576 5.07946 29.8891 6.11091C30.9205 7.14236 31.5 8.54131 31.5 10C31.5 11.4587 30.9205 12.8576 29.8891 13.8891C28.8576 14.9205 27.4587 15.5 26 15.5H22C20.5413 15.5 19.1424 14.9205 18.1109 13.8891C17.0795 12.8576 16.5 11.4587 16.5 10C16.5 8.54131 17.0795 7.14236 18.1109 6.11091Z" fill="#333132"/>
<path fill-rule="evenodd" clip-rule="evenodd" d="M18.5 28C18.5 27.1716 19.1716 26.5 20 26.5H28C28.8284 26.5 29.5 27.1716 29.5 28C29.5 28.8284 28.8284 29.5 28 29.5H20C19.1716 29.5 18.5 28.8284 18.5 28Z" fill="#333132"/>
<path fill-rule="evenodd" clip-rule="evenodd" d="M24 22.5C24.8284 22.5 25.5 23.1716 25.5 24V32C25.5 32.8284 24.8284 33.5 24 33.5C23.1716 33.5 22.5 32.8284 22.5 32V24C22.5 23.1716 23.1716 22.5 24 22.5Z" fill="#333132"/>
</svg>
