<svg width="32" height="32" viewBox="0 0 32 32" fill="none" xmlns="http://www.w3.org/2000/svg">
<g clip-path="url(#clip0_0_45)">
<mask id="mask0_0_45" style="mask-type:alpha" maskUnits="userSpaceOnUse" x="0" y="0" width="40" height="40">
<rect width="40" height="40" fill="#D9D9D9"/>
</mask>
<g mask="url(#mask0_0_45)">
<path d="M5.3335 25.3334V13.3334C5.3335 12.9112 5.42794 12.5112 5.61683 12.1334C5.80572 11.7556 6.06683 11.4445 6.40016 11.2001L14.4002 5.20008C14.8668 4.84453 15.4002 4.66675 16.0002 4.66675C16.6002 4.66675 17.1335 4.84453 17.6002 5.20008L25.6002 11.2001C25.9335 11.4445 26.1946 11.7556 26.3835 12.1334C26.5724 12.5112 26.6668 12.9112 26.6668 13.3334V25.3334C26.6668 26.0667 26.4057 26.6945 25.8835 27.2167C25.3613 27.739 24.7335 28.0001 24.0002 28.0001H20.0002C19.6224 28.0001 19.3057 27.8723 19.0502 27.6167C18.7946 27.3612 18.6668 27.0445 18.6668 26.6667V20.0001C18.6668 19.6223 18.5391 19.3056 18.2835 19.0501C18.0279 18.7945 17.7113 18.6667 17.3335 18.6667H14.6668C14.2891 18.6667 13.9724 18.7945 13.7168 19.0501C13.4613 19.3056 13.3335 19.6223 13.3335 20.0001V26.6667C13.3335 27.0445 13.2057 27.3612 12.9502 27.6167C12.6946 27.8723 12.3779 28.0001 12.0002 28.0001H8.00016C7.26683 28.0001 6.63905 27.739 6.11683 27.2167C5.59461 26.6945 5.3335 26.0667 5.3335 25.3334Z" fill="#B3B3B3"/>
</g>
</g>
<defs>
<clipPath id="clip0_0_45">
<rect width="32" height="32" fill="white"/>
</clipPath>
</defs>
</svg>
