<svg width="40" height="40" viewBox="0 0 40 40" fill="none" xmlns="http://www.w3.org/2000/svg">
<g clip-path="url(#clip0_0_26)">
<mask id="mask0_0_26" style="mask-type:alpha" maskUnits="userSpaceOnUse" x="0" y="0" width="40" height="40">
<rect width="40" height="40" fill="#D9D9D9"/>
</mask>
<g mask="url(#mask0_0_26)">
<path d="M6.66687 31.6668V16.6668C6.66687 16.139 6.78493 15.639 7.02104 15.1668C7.25715 14.6945 7.58354 14.3057 8.0002 14.0001L18.0002 6.5001C18.5835 6.05566 19.2502 5.83344 20.0002 5.83344C20.7502 5.83344 21.4169 6.05566 22.0002 6.5001L32.0002 14.0001C32.4169 14.3057 32.7433 14.6945 32.9794 15.1668C33.2155 15.639 33.3335 16.139 33.3335 16.6668V31.6668C33.3335 32.5834 33.0072 33.3682 32.3544 34.0209C31.7016 34.6737 30.9169 35.0001 30.0002 35.0001H25.0002C24.528 35.0001 24.1321 34.8404 23.8127 34.5209C23.4933 34.2015 23.3335 33.8057 23.3335 33.3334V25.0001C23.3335 24.5279 23.1738 24.132 22.8544 23.8126C22.5349 23.4932 22.1391 23.3334 21.6669 23.3334H18.3335C17.8613 23.3334 17.4655 23.4932 17.146 23.8126C16.8266 24.132 16.6669 24.5279 16.6669 25.0001V33.3334C16.6669 33.8057 16.5071 34.2015 16.1877 34.5209C15.8683 34.8404 15.4724 35.0001 15.0002 35.0001H10.0002C9.08354 35.0001 8.29881 34.6737 7.64604 34.0209C6.99326 33.3682 6.66687 32.5834 6.66687 31.6668Z" fill="#45AAF5"/>
</g>
</g>
<defs>
<clipPath id="clip0_0_26">
<rect width="40" height="40" fill="white"/>
</clipPath>
</defs>
</svg>
