<svg width="32" height="32" viewBox="0 0 32 32" fill="none" xmlns="http://www.w3.org/2000/svg">
<path d="M4 17.3333C4 16.9797 4.14048 16.6406 4.39052 16.3905C4.64057 16.1405 4.97971 16 5.33333 16H10.6667C11.0203 16 11.3594 16.1405 11.6095 16.3905C11.8595 16.6406 12 16.9797 12 17.3333V25.3333C12 25.687 11.8595 26.0261 11.6095 26.2761C11.3594 26.5262 11.0203 26.6667 10.6667 26.6667H5.33333C4.97971 26.6667 4.64057 26.5262 4.39052 26.2761C4.14048 26.0261 4 25.687 4 25.3333V17.3333Z" fill="#B3B3B3"/>
<path d="M12 12C12 11.6464 12.1405 11.3072 12.3905 11.0572C12.6406 10.8071 12.9797 10.6667 13.3333 10.6667H18.6667C19.0203 10.6667 19.3594 10.8071 19.6095 11.0572C19.8595 11.3072 20 11.6464 20 12V25.3333C20 25.687 19.8595 26.0261 19.6095 26.2761C19.3594 26.5262 19.0203 26.6667 18.6667 26.6667H13.3333C12.9797 26.6667 12.6406 26.5262 12.3905 26.2761C12.1405 26.0261 12 25.687 12 25.3333V12Z" fill="#B3B3B3"/>
<path d="M20 6.66666C20 6.31304 20.1405 5.9739 20.3905 5.72385C20.6406 5.4738 20.9797 5.33333 21.3333 5.33333H26.6667C27.0203 5.33333 27.3594 5.4738 27.6095 5.72385C27.8595 5.9739 28 6.31304 28 6.66666V25.3333C28 25.687 27.8595 26.0261 27.6095 26.2761C27.3594 26.5262 27.0203 26.6667 26.6667 26.6667H21.3333C20.9797 26.6667 20.6406 26.5262 20.3905 26.2761C20.1405 26.0261 20 25.687 20 25.3333V6.66666Z" fill="#B3B3B3"/>
<path fill-rule="evenodd" clip-rule="evenodd" d="M28 25.6667C28 26.219 27.5523 26.6667 27 26.6667H5C4.44772 26.6667 4 26.219 4 25.6667V25C4 24.4477 4.44772 24 5 24H27C27.5523 24 28 24.4477 28 25V25.6667Z" fill="#B3B3B3"/>
<path fill-rule="evenodd" clip-rule="evenodd" d="M28 12.3333C28 12.8856 27.5523 13.3333 27 13.3333H18.3333C17.781 13.3333 17.3333 12.8856 17.3333 12.3333V11.6667C17.3333 11.1144 17.781 10.6667 18.3333 10.6667H27C27.5523 10.6667 28 11.1144 28 11.6667V12.3333Z" fill="#B3B3B3"/>
<path fill-rule="evenodd" clip-rule="evenodd" d="M28 17.6667C28 18.219 27.5523 18.6667 27 18.6667H10.3333C9.78103 18.6667 9.33331 18.219 9.33331 17.6667V17C9.33331 16.4477 9.78103 16 10.3333 16H27C27.5523 16 28 16.4477 28 17V17.6667Z" fill="#B3B3B3"/>
</svg>
