<svg width="40" height="40" viewBox="0 0 40 40" fill="none" xmlns="http://www.w3.org/2000/svg">
<path d="M5 21.6667C5 21.2246 5.17559 20.8007 5.48816 20.4882C5.80072 20.1756 6.22464 20 6.66667 20H13.3333C13.7754 20 14.1993 20.1756 14.5118 20.4882C14.8244 20.8007 15 21.2246 15 21.6667V31.6667C15 32.1087 14.8244 32.5326 14.5118 32.8452C14.1993 33.1577 13.7754 33.3333 13.3333 33.3333H6.66667C6.22464 33.3333 5.80072 33.1577 5.48816 32.8452C5.17559 32.5326 5 32.1087 5 31.6667V21.6667Z" fill="#45AAF5"/>
<path d="M15 15C15 14.558 15.1756 14.1341 15.4882 13.8215C15.8007 13.5089 16.2246 13.3333 16.6667 13.3333H23.3333C23.7754 13.3333 24.1993 13.5089 24.5118 13.8215C24.8244 14.1341 25 14.558 25 15V31.6667C25 32.1087 24.8244 32.5326 24.5118 32.8452C24.1993 33.1577 23.7754 33.3333 23.3333 33.3333H16.6667C16.2246 33.3333 15.8007 33.1577 15.4882 32.8452C15.1756 32.5326 15 32.1087 15 31.6667V15Z" fill="#45AAF5"/>
<path d="M25 8.33332C25 7.8913 25.1756 7.46737 25.4882 7.15481C25.8007 6.84225 26.2246 6.66666 26.6667 6.66666H33.3333C33.7754 6.66666 34.1993 6.84225 34.5118 7.15481C34.8244 7.46737 35 7.8913 35 8.33332V31.6667C35 32.1087 34.8244 32.5326 34.5118 32.8452C34.1993 33.1577 33.7754 33.3333 33.3333 33.3333H26.6667C26.2246 33.3333 25.8007 33.1577 25.4882 32.8452C25.1756 32.5326 25 32.1087 25 31.6667V8.33332Z" fill="#45AAF5"/>
<path fill-rule="evenodd" clip-rule="evenodd" d="M35 32.3333C35 32.8856 34.5523 33.3333 34 33.3333H6C5.44772 33.3333 5 32.8856 5 32.3333V31C5 30.4477 5.44772 30 6 30H34C34.5523 30 35 30.4477 35 31V32.3333Z" fill="#45AAF5"/>
<path fill-rule="evenodd" clip-rule="evenodd" d="M35 15.6667C35 16.219 34.5523 16.6667 34 16.6667H22.6667C22.1144 16.6667 21.6667 16.219 21.6667 15.6667V14.3333C21.6667 13.7811 22.1144 13.3333 22.6667 13.3333H34C34.5523 13.3333 35 13.7811 35 14.3333V15.6667Z" fill="#45AAF5"/>
<path fill-rule="evenodd" clip-rule="evenodd" d="M35 22.3333C35 22.8856 34.5523 23.3333 34 23.3333H12.6667C12.1144 23.3333 11.6667 22.8856 11.6667 22.3333V21C11.6667 20.4477 12.1144 20 12.6667 20H34C34.5523 20 35 20.4477 35 21V22.3333Z" fill="#45AAF5"/>
</svg>
