<svg width="150" height="98" viewBox="0 0 150 98" fill="none" xmlns="http://www.w3.org/2000/svg">
<g clip-path="url(#clip0_834_680)">
<path d="M126.56 90.5401C127.253 90.7835 127.996 90.8445 128.719 90.7171C129.442 90.5898 130.12 90.2784 130.688 89.813C132.133 88.5996 132.587 86.6006 132.956 84.7495L134.046 79.2745L131.763 80.8471C130.12 81.9779 128.441 83.1451 127.304 84.7832C126.166 86.4212 125.67 88.6573 126.584 90.4297" fill="#E6E6E6"/>
<path d="M126.756 97.1687C126.524 95.4849 126.287 93.7797 126.449 92.0779C126.593 90.5666 127.054 89.0904 127.993 87.88C128.491 87.2388 129.097 86.6894 129.784 86.2565C129.964 86.1436 130.128 86.4274 129.95 86.5399C128.761 87.2912 127.842 88.4006 127.324 89.7082C126.752 91.1624 126.661 92.7476 126.76 94.2922C126.82 95.2263 126.946 96.1541 127.073 97.0812C127.083 97.1232 127.077 97.1674 127.056 97.205C127.034 97.2425 127 97.2705 126.958 97.2832C126.916 97.2945 126.872 97.2889 126.834 97.2674C126.796 97.2459 126.768 97.2104 126.756 97.1685L126.756 97.1687Z" fill="#F2F2F2"/>
<path d="M145.204 97.1014C145.204 97.1014 142.805 91.1978 150 86.7701L145.204 97.1014Z" fill="#E6E6E6"/>
<path d="M142.254 96.994C142.254 96.994 141.522 92.7862 135.859 92.8223L142.254 96.994Z" fill="#E6E6E6"/>
<path d="M9.72168 45.3297H62.4478V8.13722H9.72168V45.3297Z" fill="white"/>
<path d="M63.5762 46.4581H8.59326V7.00882H63.5762V46.4581ZM9.72166 45.3297H62.4478V8.13722H9.72166V45.3297Z" fill="#E6E6E6"/>
<path d="M5.05475 41.9117H4.66602V4.11284H57.3937V4.50458H5.05475V41.9117Z" fill="#3F3D56"/>
<path d="M0.388923 37.7989H0V0H52.7276V0.391744H0.388923V37.7989Z" fill="#3F3D56"/>
<path d="M36.085 38.0927C42.3128 38.0927 47.3614 33.007 47.3614 26.7335C47.3614 20.4599 42.3128 15.3742 36.085 15.3742C29.8572 15.3742 24.8086 20.4599 24.8086 26.7335C24.8086 33.007 29.8572 38.0927 36.085 38.0927Z" fill="white"/>
<path d="M36.0851 38.2808C29.7635 38.2808 24.6206 33.1007 24.6206 26.7335C24.6206 20.3663 29.7635 15.1862 36.0851 15.1862C42.4066 15.1862 47.5495 20.3663 47.5495 26.7335C47.5495 33.1007 42.4066 38.2808 36.0851 38.2808ZM36.0851 15.5623C29.971 15.5623 24.9967 20.5736 24.9967 26.7335C24.9967 32.8933 29.971 37.9046 36.0851 37.9046C42.1992 37.9046 47.1734 32.8933 47.1734 26.7335C47.1734 20.5736 42.1992 15.5623 36.0851 15.5623Z" fill="#3F3D56"/>
<path d="M32.9683 21.0977V32.565L42.3246 26.7529L32.9683 21.0977Z" fill="#45AAF5"/>
<path d="M96.9031 94.9013H94.7992L93.7983 86.7858H96.9035L96.9031 94.9013Z" fill="#FFB7B7"/>
<path d="M97.44 96.9409L90.6558 96.9407V96.8549C90.6558 96.1545 90.934 95.4829 91.4292 94.9877C91.9244 94.4925 92.5961 94.2143 93.2964 94.2143L97.4401 94.2145L97.44 96.9409Z" fill="#2F2E41"/>
<path d="M114.98 91.8257L113.216 92.9725L107.953 86.7142L110.557 85.0216L114.98 91.8257Z" fill="#FFB7B7"/>
<path d="M116.542 93.2432L110.854 96.9409L110.807 96.869C110.425 96.2818 110.293 95.5671 110.438 94.882C110.583 94.1969 110.994 93.5976 111.582 93.2158L115.056 90.9573L116.542 93.2432Z" fill="#2F2E41"/>
<path d="M102.279 18.2994C103.35 18.2994 104.218 17.4314 104.218 16.3607C104.218 15.2901 103.35 14.4221 102.279 14.4221C101.209 14.4221 100.341 15.2901 100.341 16.3607C100.341 17.4314 101.209 18.2994 102.279 18.2994Z" fill="#2F2E41"/>
<path d="M100.45 17.0658C100.247 16.7981 100.118 16.4824 100.075 16.1498C100.031 15.8171 100.074 15.4788 100.201 15.168C100.327 14.8571 100.532 14.5843 100.795 14.3763C101.058 14.1683 101.371 14.0322 101.702 13.9812C101.433 13.9738 101.166 14.0225 100.916 14.1243C100.667 14.2261 100.442 14.3786 100.255 14.5723C100.068 14.766 99.9233 14.9964 99.8303 15.2491C99.7373 15.5017 99.6979 15.771 99.7147 16.0396C99.7315 16.3083 99.8041 16.5706 99.9279 16.8096C100.052 17.0487 100.224 17.2594 100.434 17.4282C100.643 17.5971 100.886 17.7204 101.146 17.7903C101.406 17.8602 101.677 17.8753 101.943 17.8344C101.653 17.8269 101.367 17.7539 101.109 17.6208C100.85 17.4877 100.625 17.298 100.45 17.0658Z" fill="#2F2E41"/>
<path d="M100.271 28.9154C103.416 28.9154 105.966 26.3658 105.966 23.2206C105.966 20.0755 103.416 17.5258 100.271 17.5258C97.1258 17.5258 94.5762 20.0755 94.5762 23.2206C94.5762 26.3658 97.1258 28.9154 100.271 28.9154Z" fill="#2F2E41"/>
<path d="M94.965 21.1461C95.5813 19.8042 96.6949 18.7541 98.0707 18.2177C99.4466 17.6812 100.977 17.7002 102.339 18.2708C102.282 18.242 102.225 18.2128 102.166 18.1858C100.793 17.5556 99.2264 17.4965 97.8102 18.0214C96.394 18.5464 95.2443 19.6124 94.6141 20.985C93.9839 22.3576 93.9248 23.9244 94.4498 25.3406C94.9747 26.7568 96.0408 27.9064 97.4134 28.5366C97.4722 28.5636 97.5316 28.5879 97.5909 28.6127C96.2704 27.9516 95.2584 26.8034 94.7684 25.4103C94.2785 24.0172 94.349 22.4882 94.965 21.1461Z" fill="#2F2E41"/>
<path d="M107.181 53.1041L111.262 74.276L116.619 90.0907L107.946 91.8764L99.5284 60.2464L99.2731 90.6012L88.3047 90.8562L90.8556 72.7453L93.9525 52.2988L107.181 53.1041Z" fill="#2F2E41"/>
<path d="M100.289 28.8761C102.402 28.8761 104.115 27.163 104.115 25.0499C104.115 22.9367 102.402 21.2237 100.289 21.2237C98.1759 21.2237 96.4629 22.9367 96.4629 25.0499C96.4629 27.163 98.1759 28.8761 100.289 28.8761Z" fill="#FFB8B8"/>
<path d="M103.865 30.765L97.9979 30.912L93.9166 32.9527L94.4268 44.6864L93.4376 53.6718C93.4376 53.6718 93.0679 55.0801 95.6187 56.3555C96.435 56.7636 97.4864 56.9367 98.5388 56.9833C100.694 57.0532 102.809 56.3845 104.532 55.0882C105.067 54.6962 105.659 54.4342 106.16 54.6346C107.436 55.1448 107.691 53.6143 107.691 53.6143L106.16 46.2169L108.456 39.1827L106.138 31.6316L103.865 30.765Z" fill="#45AAF5"/>
<path d="M96.7568 21.0492V25.3093H97.7436L98.9992 23.9641L98.831 25.3093H103.192L102.923 23.9641L103.461 25.3093H104.156V21.0492H96.7568Z" fill="#2F2E41"/>
<path d="M104.922 23.9889C104.911 23.8735 104.857 23.7664 104.772 23.6883C104.686 23.6103 104.574 23.567 104.459 23.5667H103.99V26.653H104.459C104.574 26.6528 104.686 26.6094 104.772 26.5314C104.857 26.4534 104.911 26.3463 104.922 26.2309C105.155 26.1681 105.362 26.0301 105.509 25.8383C105.656 25.6465 105.735 25.4116 105.736 25.17V25.0498C105.735 24.8081 105.656 24.5732 105.509 24.3815C105.362 24.1897 105.155 24.0517 104.922 23.9889Z" fill="#45AAF5"/>
<path d="M96.4599 26.2699H95.9422C95.7978 26.2699 95.6547 26.2415 95.5213 26.1862C95.3878 26.1309 95.2666 26.0499 95.1644 25.9477C95.0623 25.8456 94.9813 25.7243 94.926 25.5909C94.8707 25.4574 94.8423 25.3144 94.8423 25.17V25.0498C94.8423 24.9054 94.8707 24.7623 94.926 24.6289C94.9813 24.4954 95.0623 24.3742 95.1644 24.272C95.2666 24.1699 95.3878 24.0889 95.5213 24.0336C95.6547 23.9783 95.7978 23.9499 95.9422 23.9499H96.4599V26.2699Z" fill="#45AAF5"/>
<path d="M96.5879 26.653H96.1196C95.9954 26.653 95.8763 26.6037 95.7885 26.5159C95.7007 26.4281 95.6514 26.309 95.6514 26.1848V24.035C95.6514 23.9108 95.7007 23.7917 95.7885 23.7039C95.8763 23.6161 95.9954 23.5667 96.1196 23.5667H96.5879V26.653Z" fill="#45AAF5"/>
<path d="M104.672 24.1113H104.328C104.328 21.6872 102.532 19.7151 100.324 19.7151C98.1164 19.7151 96.3203 21.6872 96.3203 24.1113H95.9771C95.9771 21.498 97.9272 19.3719 100.324 19.3719C102.721 19.3719 104.672 21.498 104.672 24.1113Z" fill="#45AAF5"/>
<path d="M90.6885 59.874C90.895 59.7612 91.0743 59.6046 91.2137 59.4151C91.3532 59.2256 91.4493 59.0078 91.4955 58.7771C91.5416 58.5464 91.5367 58.3084 91.4809 58.0799C91.4251 57.8513 91.3199 57.6378 91.1726 57.4543L92.9401 54.2294L91.2423 52.6773L88.8103 57.2666C88.5184 57.5344 88.3349 57.8999 88.2946 58.2939C88.2542 58.688 88.3598 59.0831 88.5913 59.4045C88.8228 59.7259 89.1642 59.9512 89.5507 60.0377C89.9373 60.1242 90.3421 60.066 90.6885 59.874Z" fill="#FFB7B7"/>
<path d="M95.1921 32.9527L94.5054 32.6163C94.5054 32.6163 92.8963 32.9527 92.3862 33.973C91.876 34.9933 90.6006 45.4517 90.6006 45.4517L89.5803 52.3389C89.5803 52.3389 88.8151 52.3389 88.8151 53.1041C88.8151 53.8693 87.7947 55.91 88.56 55.91C89.3252 55.91 92.3862 55.91 92.8964 55.3998C93.4065 54.8897 94.4269 52.849 94.1718 52.5939C93.9167 52.3389 93.4065 52.3389 93.4065 52.3389L94.1242 45.4341L95.1921 32.9527Z" fill="#45AAF5"/>
<path d="M108.901 57.4767C108.73 57.3154 108.596 57.1185 108.509 56.8999C108.422 56.6812 108.384 56.4462 108.398 56.2114C108.412 55.9765 108.477 55.7475 108.589 55.5405C108.7 55.3335 108.856 55.1535 109.045 55.0133L108.151 51.4461L110.187 50.3742L111.378 55.4295C111.593 55.7624 111.678 56.1625 111.617 56.5539C111.556 56.9453 111.354 57.3009 111.049 57.5533C110.744 57.8056 110.356 57.9372 109.961 57.9231C109.565 57.909 109.188 57.7501 108.901 57.4767Z" fill="#FFB7B7"/>
<path d="M106.341 43.1773L107.059 50.082C107.059 50.082 106.549 50.082 106.294 50.3371C106.039 50.5922 107.059 52.6329 107.569 53.143C108.079 53.6532 111.14 53.6532 111.906 53.6532C112.671 53.6532 111.65 51.6125 111.65 50.8473C111.65 50.082 110.885 50.082 110.885 50.082L109.865 43.1948C109.865 43.1948 108.589 33.8649 108.079 32.8446C107.569 31.8243 105.96 31.4879 105.96 31.4879L105.273 31.8243L106.341 43.1773Z" fill="#45AAF5"/>
<path d="M92.3517 57.5522L92.3188 57.573L91.7465 56.6711C91.703 56.6025 91.6465 56.5432 91.5801 56.4965C91.5136 56.4498 91.4387 56.4167 91.3594 56.3989C91.2802 56.3812 91.1983 56.3793 91.1183 56.3932C91.0383 56.4072 90.9619 56.4367 90.8933 56.4802L88.9824 57.6926C88.8439 57.7805 88.746 57.9197 88.7102 58.0797C88.6744 58.2397 88.7037 58.4074 88.7915 58.5459L91.9309 63.4942C91.9744 63.5627 92.031 63.6221 92.0974 63.6687C92.1638 63.7154 92.2388 63.7486 92.318 63.7663C92.3973 63.784 92.4792 63.786 92.5592 63.772C92.6392 63.7581 92.7156 63.7285 92.7842 63.685L94.6951 62.4726C94.8336 62.3848 94.9315 62.2455 94.9672 62.0855C95.003 61.9255 94.9738 61.7578 94.8859 61.6194L92.7261 58.2151L92.7591 58.1942L92.3517 57.5522Z" fill="#3F3D56"/>
<path d="M91.6379 56.7452L94.7727 61.6862C94.8383 61.7896 94.8601 61.9149 94.8334 62.0344C94.8067 62.1539 94.7336 62.2578 94.6302 62.3234L92.7101 63.5417C92.6067 63.6073 92.4814 63.6291 92.3619 63.6024C92.2424 63.5756 92.1384 63.5025 92.0728 63.3991L88.9381 58.4581C88.8725 58.3547 88.8506 58.2295 88.8773 58.11C88.9041 57.9905 88.9772 57.8865 89.0806 57.8209L89.3135 57.6731C89.3199 57.7085 89.3349 57.7418 89.3572 57.77C89.3795 57.7982 89.4083 57.8206 89.4413 57.835C89.4742 57.8495 89.5102 57.8556 89.546 57.8529C89.5819 57.8502 89.6165 57.8387 89.6469 57.8195L90.7417 57.1249C90.772 57.1056 90.7972 57.0792 90.8149 57.0479C90.8326 57.0166 90.8424 56.9814 90.8434 56.9455C90.8443 56.9095 90.8364 56.8739 90.8204 56.8417C90.8043 56.8095 90.7806 56.7818 90.7513 56.7609L91.0007 56.6027C91.1041 56.5371 91.2293 56.5153 91.3488 56.542C91.4683 56.5687 91.5723 56.6418 91.6379 56.7452Z" fill="#45AAF5"/>
<path d="M148.437 97.2942H76.7838C76.7339 97.2942 76.6861 97.2744 76.6508 97.2391C76.6155 97.2038 76.5957 97.156 76.5957 97.1061C76.5957 97.0562 76.6155 97.0084 76.6508 96.9731C76.6861 96.9378 76.7339 96.918 76.7838 96.918H148.437C148.487 96.918 148.535 96.9378 148.57 96.9731C148.606 97.0084 148.625 97.0562 148.625 97.1061C148.625 97.156 148.606 97.2038 148.57 97.2391C148.535 97.2744 148.487 97.2942 148.437 97.2942Z" fill="#CBCBCB"/>
</g>
<defs>
<clipPath id="clip0_834_680">
<rect width="150" height="97.2942" fill="white"/>
</clipPath>
</defs>
</svg>
