<svg width="120" height="99" viewBox="0 0 120 99" fill="none" xmlns="http://www.w3.org/2000/svg">
<g clip-path="url(#clip0_834_852)">
<path d="M105.696 73.3728H104.33V77.4304H105.696V73.3728Z" fill="#F2F2F2"/>
<path d="M112.624 76.4941H97.4042C96.2727 76.4941 95.3555 75.5768 95.3555 74.4453C95.3555 73.3138 96.2727 72.3966 97.4042 72.3966H112.624C113.755 72.3966 114.672 73.3138 114.672 74.4453C114.672 75.5768 113.755 76.4941 112.624 76.4941Z" fill="#F2F2F2"/>
<path d="M113.794 76.4941C114.71 76.4941 115.453 75.7516 115.453 74.8356V55.1284C115.453 54.2124 114.71 53.4699 113.794 53.4699C112.878 53.4699 112.136 54.2124 112.136 55.1284C107.098 58.9834 109.146 66.6555 112.136 74.8356C112.136 75.7516 112.878 76.4941 113.794 76.4941Z" fill="#F2F2F2"/>
<path d="M111.761 67.8321C111.536 68.8411 111.111 69.6379 110.579 70.2658C109.494 71.5497 107.957 72.1322 106.744 72.3963C105.655 72.6345 104.828 72.615 104.828 72.615L99.7073 73.0372L95.6606 73.3707L91.5944 73.7063C91.8261 74.6806 92.0469 75.8 92.2569 76.9973C92.2807 77.1402 92.3067 77.2853 92.3327 77.4304H84.0747L83.9361 76.9973L83.0874 74.3666L81.3661 70.6057C81.0521 69.993 80.894 69.3239 80.894 68.6506C80.894 68.2024 80.9655 67.7563 81.1062 67.3233C81.1084 67.3168 81.1084 67.3103 81.1106 67.3038C81.4418 66.3035 82.2603 65.537 83.2736 65.2317L84.4969 64.8615C87.9655 64.0517 92.8264 62.7894 96.5332 61.8107C99.6294 60.9923 101.918 60.3687 101.918 60.3687L101.925 60.3254L102.565 55.9431L108.955 55.3823L111.031 55.1982C111.031 55.1982 110.986 55.4148 111.003 56.1921C111.003 56.2397 111.003 56.2895 111.005 56.3393C111.01 56.4909 111.016 56.6641 111.025 56.8568C111.027 56.9217 111.031 56.9888 111.036 57.0581C111.042 57.1924 111.051 57.3353 111.062 57.489C111.062 57.4998 111.062 57.5107 111.064 57.5215C111.075 57.7142 111.09 57.9242 111.109 58.1494C111.114 58.2425 111.122 58.3378 111.131 58.4352C111.172 58.9267 111.224 59.4896 111.291 60.1305C111.295 60.1955 111.302 60.2604 111.311 60.3254C111.319 60.4272 111.33 60.5289 111.341 60.6329C111.363 60.8147 111.382 61.0009 111.404 61.1958C111.406 61.2153 111.408 61.2326 111.41 61.2521C111.43 61.4232 111.451 61.5985 111.471 61.7804C111.495 61.9774 111.518 62.1788 111.544 62.3845C111.56 62.5231 111.577 62.666 111.596 62.8132C111.605 62.8825 111.614 62.9539 111.622 63.0254C111.633 63.1012 111.642 63.1791 111.653 63.2571C111.67 63.3956 111.687 63.5385 111.707 63.6836C111.748 64.0062 111.793 64.3397 111.839 64.6861C112.006 65.9137 111.958 66.9552 111.761 67.8321Z" fill="#2F2E41"/>
<path d="M111.761 67.8321L110.087 68.5553L101.191 72.3963L99.7074 73.0372L96.0656 74.6091C96.1695 75.1569 96.2799 75.6982 96.399 76.2309C96.4553 76.4885 96.5116 76.744 96.5722 76.9973C96.6069 77.1424 96.6393 77.2853 96.6762 77.4304H89.3058L89.2496 76.9973L89.0352 75.302C88.6087 74.9209 88.3575 74.1913 88.2059 73.4161C88.0544 72.6432 88.0002 71.8182 87.9634 71.2466C87.9634 71.2401 87.9634 71.2314 87.9613 71.2249C87.9006 70.1683 89.9641 69.4668 90.789 68.8086L91.8023 68.473C93.896 67.0202 97.0074 64.8203 100.019 62.6833C101.16 61.8735 102.288 61.0724 103.338 60.3254C106.604 58 109.145 56.1834 109.145 56.1834L108.955 55.3823L111.031 55.1982C111.031 55.1982 110.986 55.4148 111.003 56.1921C111.003 56.2397 111.003 56.2895 111.005 56.3393C111.01 56.493 111.016 56.6641 111.025 56.8568C111.027 56.9217 111.031 56.9888 111.036 57.0581C111.042 57.1924 111.051 57.3353 111.062 57.489C111.062 57.4998 111.062 57.5107 111.064 57.5215C111.075 57.7142 111.09 57.9242 111.109 58.1494C111.114 58.2425 111.122 58.3378 111.131 58.4352C111.17 58.9267 111.222 59.4875 111.291 60.1305C111.295 60.1955 111.302 60.2605 111.311 60.3254C111.319 60.4272 111.33 60.5289 111.341 60.6328C111.363 60.8147 111.382 61.0031 111.404 61.1958C111.406 61.2153 111.408 61.2326 111.41 61.2521C111.43 61.4232 111.451 61.5985 111.471 61.7804C111.495 61.9774 111.519 62.1788 111.544 62.3845C111.562 62.5252 111.579 62.6681 111.596 62.8132C111.605 62.8825 111.614 62.9539 111.622 63.0254C111.633 63.1012 111.642 63.1791 111.653 63.2571C111.67 63.3956 111.687 63.5385 111.707 63.6836C111.748 64.0062 111.793 64.3396 111.839 64.6861C112.006 65.9137 111.958 66.9552 111.761 67.8321Z" fill="#2F2E41"/>
<path d="M113.094 57.4225C113.434 58.8754 113.297 59.8713 113.163 61.2917C113.113 61.8157 113.284 62.5692 112.775 62.9221C112.34 63.2187 96.6837 63.078 96.5387 61.8655C96.3741 60.4949 96.6946 59.0572 97.3636 57.8209C98.5739 55.5821 99.2668 52.841 99.6219 50.8945C100.373 46.8044 98.68 44.583 99.3123 40.5038C99.4205 39.8087 99.4422 39.1505 99.4162 38.5204C99.3296 36.3314 98.6541 34.4737 98.8684 32.5878C98.9572 31.8127 99.1953 31.0332 99.6868 30.2234C99.8319 29.9831 99.9986 29.7406 100.191 29.4959C101.309 28.0712 101.601 26.9973 103.541 26.9995C103.838 26.9995 104.154 26.98 104.474 26.9648C104.987 26.9367 105.511 26.9172 105.975 26.9995C107.087 27.1965 106.841 27.8959 107.559 28.6623L107.837 28.9395C108.529 29.4851 109.129 29.9117 109.735 30.5699C110.952 31.8906 112.396 33.3759 113.113 35.0258C113.598 36.1452 113.304 37.8557 113.291 39.0769C113.276 40.6467 112.791 41.9653 112.386 43.4614C112.033 44.7605 111.94 46.1246 111.699 47.4518C111.39 49.1688 111.108 50.862 110.965 52.592C110.855 53.9496 112.769 51.7043 112.773 53.064C112.778 54.4735 112.773 56.0584 113.094 57.4225Z" fill="#3F3D56"/>
<path d="M85.9732 31.2722L90.7946 32.1353L90.6858 34.9584L85.6207 33.8644C85.4827 33.9418 85.3313 34.0008 85.1686 34.0363C84.284 34.2296 83.4102 33.6693 83.2169 32.7847C83.0235 31.9001 83.5839 31.0263 84.4685 30.833C85.0326 30.7097 85.5915 30.8938 85.9732 31.2722Z" fill="#FFB6B6"/>
<path d="M105.284 37.899C105.072 38.3321 104.743 38.7066 104.32 38.9795C103.697 39.3822 102.965 39.4926 102.287 39.3454C102.205 39.328 101.926 39.2501 101.497 39.1245C101.423 39.1029 101.345 39.0812 101.263 39.0574C100.776 38.9167 100.142 38.7305 99.4163 38.5204C98.6974 38.3104 97.8833 38.0744 97.041 37.8319L97.0367 37.8341C96.7812 37.7561 96.5171 37.6803 96.2551 37.6046H96.2507C94.2913 37.0481 92.2408 36.4808 90.7468 36.1171C90.6776 36.0976 90.3181 36.4419 90.251 36.4245C90.1471 36.3986 90.1276 36.0023 90.0302 35.9785C89.8202 35.9265 89.5452 36.2535 89.372 36.2102C88.7419 36.0564 88.4907 34.7162 88.4907 34.7162L88.5189 34.491L88.835 31.7845L88.8393 31.7369L90.6213 31.1761L91.2145 31.7499L92.0373 31.4078L92.8038 31.9816L94.3692 32.1375L95.0447 32.2067L95.0902 32.2089L98.8685 32.5878L99.9814 32.7004C99.8926 32.2501 99.8233 31.804 99.7735 31.3645C99.7605 31.2411 99.7475 31.1198 99.7389 30.9986L99.7367 30.9964C99.7129 30.7366 99.6977 30.4811 99.6869 30.2234C99.832 29.9831 99.9987 29.7406 100.191 29.4959C101.309 28.0712 101.601 26.9973 103.541 26.9995C103.838 26.9995 104.154 26.98 104.474 26.9648L104.974 31.3948L105.524 36.2665L105.542 36.4245C105.598 36.9442 105.505 37.453 105.284 37.899Z" fill="#3F3D56"/>
<path d="M95.9207 29.8674C95.6739 29.6898 95.3577 29.6574 95.0784 29.7808L86.6645 33.4897C85.8981 33.8275 85.032 33.8881 84.2265 33.6608L84.1031 33.6261C84.4535 30.5132 83.5594 27.1632 81.8037 23.649C81.5763 23.6186 81.349 23.6793 81.165 23.8222C80.9484 23.9911 80.8272 24.2466 80.8359 24.5237L81.1 34.28L81.1888 37.5192C79.2699 39.8179 78.5759 41.9446 81.3533 43.5838C81.362 43.8891 81.5287 44.1619 81.7972 44.3092C82.0657 44.4586 82.384 44.4542 82.6481 44.2984L82.8192 44.1966L85.1294 47.4335C85.2831 47.3729 85.4434 47.3426 85.6058 47.3426C85.8288 47.3426 86.0518 47.3989 86.251 47.5137L90.4536 49.9322L93.316 51.5799C93.5715 51.7271 93.8811 51.7336 94.1431 51.5972C94.4051 51.4586 94.574 51.201 94.5999 50.9065L94.6801 49.9322L94.9464 46.7277L95.3837 41.4403L95.5916 38.9179L95.6241 38.5411L96.278 30.636C96.3039 30.3307 96.1697 30.0428 95.9207 29.8674Z" fill="#F2F2F2"/>
<path d="M96.5701 30.95C96.3233 30.7724 96.0072 30.7399 95.7279 30.8634C92.6842 33.2067 89.7409 35.0851 87.3139 34.5723C86.5475 34.9101 85.6814 34.9707 84.8759 34.7434L84.7525 34.7087C85.1029 31.5958 84.2088 28.2458 82.4531 24.7316C82.2257 24.7012 81.9984 24.7619 81.8144 24.9048C81.5978 25.0737 81.4766 25.3291 81.4853 25.6063L81.7494 35.3626L81.8382 38.6018C79.9193 40.9005 79.2253 43.0272 82.0027 44.6664C82.0114 44.9717 82.1781 45.2445 82.4466 45.3918C82.7151 45.5412 83.0334 45.5368 83.2975 45.381L83.4686 45.2792L85.7788 48.5161C85.9326 48.4555 86.0928 48.4252 86.2552 48.4252C86.4782 48.4252 86.7012 48.4815 86.9004 48.5962L91.103 51.0148L93.9654 52.6625C94.2209 52.8097 94.5305 52.8162 94.7925 52.6798C95.0545 52.5412 95.2234 52.2836 95.2493 51.9891L95.3295 51.0148L95.5958 47.8103L96.0332 42.5229L96.241 40.0005L96.2735 39.6237L96.9274 31.7186C96.9534 31.4133 96.8191 31.1253 96.5701 30.95Z" fill="#E6E6E6"/>
<path d="M95.0106 35.3412L88.5532 36.9116L88.6454 37.2907L95.1028 35.7203L95.0106 35.3412Z" fill="white"/>
<path d="M95.0106 38.268L88.5532 39.8384L88.6454 40.2175L95.1028 38.6471L95.0106 38.268Z" fill="white"/>
<path d="M88.5102 42.0996L88.502 42.4897L95.146 42.6298L95.1543 42.2397L88.5102 42.0996Z" fill="white"/>
<path d="M88.5222 44.904L88.4995 45.2935L95.1339 45.6791L95.1565 45.2896L88.5222 44.904Z" fill="white"/>
<path d="M88.1878 47.6943L88.126 48.0795L94.6876 49.1327L94.7494 48.7474L88.1878 47.6943Z" fill="white"/>
<path d="M68.3309 51.0151H118.367C118.797 51.0151 119.146 52.0032 119.146 53.2221V58.1185C119.146 59.3373 118.797 60.3254 118.367 60.3254H75.6925C75.2622 60.3254 74.9134 59.3373 74.9134 58.1185L67.5518 53.2221C67.5518 52.0032 67.9006 51.0151 68.3309 51.0151Z" fill="#F2F2F2"/>
<path d="M104.267 19.7471C104.233 19.6864 104.196 19.628 104.157 19.5717C104.12 19.5132 104.079 19.4569 104.038 19.4028C104.018 19.3747 103.999 19.3487 103.977 19.3249C103.782 19.0759 103.566 18.8745 103.345 18.7532C103.33 18.7446 103.315 18.7359 103.3 18.7294C103.265 18.7099 103.23 18.6948 103.194 18.6818C103.126 18.6558 103.059 18.6363 102.99 18.6277C102.958 18.6233 102.925 18.6212 102.893 18.6212C102.869 18.6212 102.845 18.6233 102.821 18.6255C102.808 18.6277 102.793 18.6298 102.778 18.632C102.761 18.6342 102.741 18.6385 102.724 18.6428C102.704 18.6472 102.685 18.6537 102.667 18.6601C102.65 18.6666 102.631 18.6731 102.613 18.6818C102.594 18.6905 102.574 18.6991 102.557 18.71C102.537 18.7208 102.52 18.7316 102.503 18.7424C102.483 18.7554 102.466 18.7684 102.449 18.7814C103.111 19.156 103.761 19.5544 104.393 19.9722C104.354 19.8943 104.313 19.8207 104.267 19.7471Z" fill="#3F3D56"/>
<path d="M104.267 19.7471C104.233 19.6864 104.196 19.628 104.157 19.5717C104.12 19.5132 104.079 19.4569 104.038 19.4028C104.018 19.3747 103.999 19.3487 103.977 19.3249C103.782 19.0759 103.566 18.8745 103.345 18.7532C103.33 18.7446 103.315 18.7359 103.3 18.7294C103.265 18.7099 103.23 18.6948 103.194 18.6818C103.126 18.6558 103.059 18.6363 102.99 18.6277C102.958 18.6233 102.925 18.6212 102.893 18.6212C102.869 18.6212 102.845 18.6233 102.821 18.6255C102.808 18.6277 102.793 18.6298 102.778 18.632C102.761 18.6342 102.741 18.6385 102.724 18.6428C102.704 18.6472 102.685 18.6537 102.667 18.6601C102.65 18.6666 102.631 18.6731 102.613 18.6818C102.594 18.6905 102.574 18.6991 102.557 18.71C102.537 18.7208 102.52 18.7316 102.503 18.7424C102.483 18.7554 102.466 18.7684 102.449 18.7814C103.111 19.156 103.761 19.5544 104.393 19.9722C104.354 19.8943 104.313 19.8207 104.267 19.7471Z" fill="#3F3D56"/>
<path d="M115.087 13.9898H44.9761V14.4229H85.8591C90.0098 14.4229 93.9829 15.172 97.6551 16.5448H97.6572C98.1617 16.7331 98.6576 16.9323 99.1491 17.1445C100.284 17.6295 101.384 18.1773 102.449 18.7814C103.111 19.156 103.761 19.5544 104.393 19.9722C105.744 20.8621 107.026 21.8473 108.23 22.9191L108.232 22.9212C108.286 22.9667 108.338 23.0122 108.39 23.062C115.252 29.2306 119.567 38.1771 119.567 48.1305V72.517C119.567 74.9377 117.648 76.908 115.453 74.628C115.403 74.5761 115.353 74.5241 115.304 74.4678H73.34V77.4298H115.087C117.796 77.4298 120 75.2256 120 72.517V18.9026C120 16.194 117.796 13.9898 115.087 13.9898Z" fill="#3F3D56"/>
<path d="M104.267 19.7471C104.233 19.6864 104.196 19.628 104.157 19.5717C104.12 19.5132 104.079 19.4569 104.038 19.4028C104.018 19.3747 103.999 19.3487 103.977 19.3249C103.782 19.0759 103.566 18.8745 103.345 18.7532C103.33 18.7446 103.315 18.7359 103.3 18.7294C103.265 18.7099 103.23 18.6948 103.194 18.6818C103.126 18.6558 103.059 18.6363 102.99 18.6277C102.958 18.6233 102.925 18.6212 102.893 18.6212C102.869 18.6212 102.845 18.6233 102.821 18.6255C102.808 18.6277 102.793 18.6298 102.778 18.632C102.761 18.6342 102.741 18.6385 102.724 18.6428C102.704 18.6472 102.685 18.6537 102.667 18.6601C102.65 18.6666 102.631 18.6731 102.613 18.6818C102.594 18.6905 102.574 18.6991 102.557 18.71C102.537 18.7208 102.52 18.7316 102.503 18.7424C102.483 18.7554 102.466 18.7684 102.449 18.7814C103.111 19.156 103.761 19.5544 104.393 19.9722C104.354 19.8943 104.313 19.8207 104.267 19.7471Z" fill="#3F3D56"/>
<path d="M104.267 19.7471C104.233 19.6864 104.196 19.628 104.157 19.5717C104.12 19.5132 104.079 19.4569 104.038 19.4028C104.018 19.3747 103.999 19.3487 103.977 19.3249C103.782 19.0759 103.566 18.8745 103.345 18.7532C103.33 18.7446 103.315 18.7359 103.3 18.7294C103.265 18.7099 103.23 18.6948 103.194 18.6818C103.126 18.6558 103.059 18.6363 102.99 18.6277C102.958 18.6233 102.925 18.6212 102.893 18.6212C102.869 18.6212 102.845 18.6233 102.821 18.6255C102.808 18.6277 102.793 18.6298 102.778 18.632C102.761 18.6342 102.741 18.6385 102.724 18.6428C102.704 18.6472 102.685 18.6537 102.667 18.6601C102.65 18.6666 102.631 18.6731 102.613 18.6818C102.594 18.6905 102.574 18.6991 102.557 18.71C102.537 18.7208 102.52 18.7316 102.503 18.7424C102.483 18.7554 102.466 18.7684 102.449 18.7814C103.111 19.156 103.761 19.5544 104.393 19.9722C104.354 19.8943 104.313 19.8207 104.267 19.7471Z" fill="#3F3D56"/>
<path d="M104.267 19.7471C104.233 19.6864 104.196 19.628 104.157 19.5717C104.12 19.5132 104.079 19.4569 104.038 19.4028C104.018 19.3747 103.999 19.3487 103.977 19.3249C103.782 19.0759 103.566 18.8745 103.345 18.7532C103.33 18.7446 103.315 18.7359 103.3 18.7294C103.265 18.7099 103.23 18.6948 103.194 18.6818C103.126 18.6558 103.059 18.6363 102.99 18.6277C102.958 18.6233 102.925 18.6212 102.893 18.6212C102.869 18.6212 102.845 18.6233 102.821 18.6255C102.808 18.6277 102.793 18.6298 102.778 18.632C102.761 18.6342 102.741 18.6385 102.724 18.6428C102.704 18.6472 102.685 18.6537 102.667 18.6601C102.65 18.6666 102.631 18.6731 102.613 18.6818C102.594 18.6905 102.574 18.6991 102.557 18.71C102.537 18.7208 102.52 18.7316 102.503 18.7424C102.483 18.7554 102.466 18.7684 102.449 18.7814C103.111 19.156 103.761 19.5544 104.393 19.9722C104.354 19.8943 104.313 19.8207 104.267 19.7471Z" fill="#3F3D56"/>
<path d="M102.688 25.9517C102.815 25.9669 102.941 25.9783 103.066 25.984C103.457 26.0054 103.843 25.9832 104.214 25.9202C105.344 25.7391 106.37 25.2042 107.162 24.4197C107.999 23.5919 108.572 22.487 108.726 21.2292C109.089 18.2602 106.975 15.5556 104.006 15.1928C101.08 14.8331 98.412 16.8799 97.9862 19.7808C97.9795 19.8257 97.9726 19.8687 97.9677 19.9134C97.6052 22.8843 99.7172 25.5872 102.688 25.9517Z" fill="#FFB6B6"/>
<path d="M96.7651 19.5821C97.5342 19.9624 98.7909 18.7667 99.2722 19.4546C99.3503 19.306 99.4367 19.1622 99.522 19.0262C99.5992 18.9045 99.7096 18.6448 99.8374 18.6003C99.6757 18.9905 99.7114 19.5188 99.8792 19.9715C100.638 20.255 101.631 19.6275 102.333 18.8853C103.436 17.7215 105.236 20.7058 104.81 22.2502C105.352 21.5886 106.528 21.9617 106.926 22.7182C107.324 23.4727 106.651 24.0773 106.508 24.9189L107.594 24.781C108.279 24.1136 108.231 22.989 108.795 22.2155C109.738 20.921 110.103 19.6002 109.394 18.2643C108.766 17.083 108.707 15.5542 107.554 14.8731C108.058 14.6268 106.266 15.0116 106.745 14.2089C107.226 13.4079 104.664 13.3107 104.496 13.7398C103.764 12.8637 103.026 12.286 102.125 12.9881C101.241 13.6788 101.332 14.4048 100.294 14.3397C99.8063 14.3095 99.8598 15.2183 99.5701 15.6145C99.282 16.0086 98.1622 16.2616 98.1077 16.2195C97.8119 15.9881 96.8056 17.958 96.8056 17.958C96.8056 17.958 95.9897 19.1966 96.7651 19.5821Z" fill="#2F2E41"/>
<path d="M83.1746 0.758377H72.026C71.0409 0.758377 70.2397 1.56167 70.2397 2.54682V13.6954C70.2397 13.795 70.2484 13.8946 70.2636 13.9898C70.2895 14.1414 70.3328 14.2865 70.3935 14.4229C70.6728 15.0464 71.3007 15.4817 72.026 15.4817H83.1746C83.8999 15.4817 84.5278 15.0464 84.8071 14.4229C84.8699 14.2865 84.9132 14.1414 84.937 13.9898C84.9544 13.8946 84.963 13.795 84.963 13.6954V2.54683C84.963 1.56167 84.1597 0.758377 83.1746 0.758377ZM84.5711 14.4229C84.3091 14.9274 83.783 15.2716 83.1746 15.2716H72.026C71.4176 15.2716 70.8915 14.9274 70.6295 14.4229C70.558 14.2886 70.5061 14.1436 70.4779 13.9898C70.4584 13.8946 70.4498 13.795 70.4498 13.6954V2.54683C70.4498 2.52301 70.4498 2.50135 70.4541 2.4797V2.47754C70.4887 1.63745 71.1794 0.968409 72.026 0.968409H77.6469C79.7146 0.968409 81.5767 1.85396 82.8758 3.26567C82.8823 3.27433 82.8888 3.28083 82.8953 3.28732L82.9061 3.29814C83.7895 4.26815 84.4066 5.48931 84.6426 6.83823C84.6512 6.89019 84.6621 6.93999 84.6686 6.99195C84.6707 7.00279 84.6707 7.01361 84.6729 7.02226C84.7249 7.36654 84.7508 7.71729 84.7508 8.07454V13.6954C84.7508 13.795 84.7422 13.8946 84.7227 13.9898C84.6945 14.1436 84.6426 14.2886 84.5711 14.4229Z" fill="#E6E6E6"/>
<path d="M84.7646 8.12107C84.7646 4.16416 81.2202 0.702886 77.311 0.0901335C72.3629 -0.685475 67.8137 3.67528 68.4683 8.14441C69.0418 12.0595 75.7619 17.7381 77.6 14.234C79.7033 10.2244 84.7646 12.078 84.7646 8.12107Z" fill="#45AAF5"/>
<path d="M79.0839 4.98288H75.4854C75.3944 4.98288 75.3208 5.0565 75.3208 5.14744C75.3208 5.23837 75.3944 5.31199 75.4854 5.31199H79.0839C79.1748 5.31199 79.2485 5.23837 79.2485 5.14744C79.2485 5.0565 79.1748 4.98288 79.0839 4.98288Z" fill="white"/>
<path d="M79.0839 8.49265H75.4854C75.3944 8.49265 75.3208 8.56626 75.3208 8.65503C75.3208 8.74597 75.3944 8.82174 75.4854 8.82174H79.0839C79.1748 8.82174 79.2485 8.74597 79.2485 8.65503C79.2485 8.56626 79.1748 8.49265 79.0839 8.49265Z" fill="white"/>
<path d="M81.0154 6.73885H73.5542C73.4633 6.73885 73.3896 6.81247 73.3896 6.9034C73.3896 6.99435 73.4633 7.06796 73.5542 7.06796H81.0154C81.1064 7.06796 81.18 6.99435 81.18 6.9034C81.18 6.81247 81.1064 6.73885 81.0154 6.73885Z" fill="white"/>
<path d="M94.566 38.7957L98.9744 40.9304L98.1063 43.6189L93.5257 41.1961C93.3719 41.2333 93.2102 41.2491 93.044 41.2393C92.1401 41.1863 91.4503 40.4105 91.5034 39.5066C91.5564 38.6027 92.3321 37.913 93.2361 37.966C93.8125 37.9998 94.3008 38.3282 94.566 38.7957Z" fill="#FFB6B6"/>
<path d="M113.366 36.1486V36.1464C112.95 35.4947 112.277 35.0119 111.46 34.8581L110.845 34.7412C109.33 37.5689 107.929 40.4573 107.667 43.9606L101.241 41.4381L100.95 41.3256L100.368 40.5656L99.4825 40.6717L99.3266 40.4032V40.401L99.0668 39.9615L97.2004 40.0199L97.1831 40.0611L97.1809 40.0632L96.2715 42.2761L96.2693 42.2782L96.1459 42.5814L96.0593 42.7914C96.0593 42.7914 96.0052 43.389 96.1373 43.887V43.8913C96.2022 44.1403 96.3148 44.3633 96.5032 44.4694C96.6591 44.556 97.012 44.3157 97.2004 44.4218C97.287 44.4716 97.1982 44.8613 97.2913 44.9133C97.3519 44.9479 97.7893 44.7141 97.8521 44.7487C98.3501 45.028 98.913 45.3571 99.5128 45.7122C99.8181 45.8941 100.132 46.0803 100.452 46.2752C103.791 48.2823 107.76 50.8069 108.089 50.9801C108.113 50.9931 108.137 51.0039 108.161 51.0148C108.758 51.3114 109.464 51.385 110.146 51.1772C110.289 51.1338 110.425 51.0797 110.553 51.0148C110.789 50.9 111.003 50.7506 111.19 50.5752C111.618 50.1812 111.911 49.6485 112.012 49.0488L113.784 38.1752C113.903 37.4434 113.736 36.7289 113.366 36.1486Z" fill="#3F3D56"/>
<path d="M80.1039 46.2208C79.9004 45.3937 79.2919 44.781 78.5818 44.5948C78.2981 44.5168 77.9972 44.5081 77.6984 44.5818C77.3779 44.6597 77.0899 44.8221 76.8583 45.0538C76.2672 44.7766 75.4444 44.7355 74.5307 44.7355H73.0151C71.2223 44.7355 69.7673 46.2511 69.7673 47.9833C69.2996 49.5076 69.8777 50.5533 70.9408 51.0145C71.5189 51.2657 72.2399 51.3436 73.0151 51.231H74.5307C75.0568 51.3306 75.5592 51.244 76.0074 51.0145C76.7976 50.6118 77.4191 49.7674 77.694 48.7303C77.8911 48.7995 78.0968 48.8385 78.3068 48.8385C78.4454 48.8385 78.5861 48.8212 78.7247 48.7887C79.2356 48.6631 79.66 48.3232 79.9199 47.8339C80.1753 47.351 80.2403 46.7794 80.1039 46.2208ZM78.454 47.4138C78.3046 47.6975 78.0859 47.914 77.8218 48.0461C77.8131 48.1327 77.8001 48.2193 77.7871 48.3037C77.8846 48.3427 77.8391 48.3405 77.7568 48.321C77.6139 48.2864 77.3606 48.1933 77.5403 48.15C77.6377 48.1262 77.733 48.0915 77.8218 48.0461C77.8694 47.6087 77.8608 47.1497 77.7785 46.6842C77.7785 46.0216 77.5793 45.5842 77.2393 45.2941C77.4017 45.1534 77.5901 45.0538 77.8001 45.0018C77.9062 44.9758 78.0123 44.9628 78.1162 44.9628C78.2483 44.9628 78.3739 44.9715 78.4908 44.9931C78.9953 45.0819 79.3504 45.3786 79.5106 46.0346C79.6211 46.4893 78.6597 47.0263 78.454 47.4138Z" fill="#F2F2F2"/>
<path d="M51.9644 50.2949C51.9644 48.5628 50.5094 47.0471 48.7167 47.0471H47.201C46.3393 47.0471 45.5576 47.084 44.9774 47.32C44.9406 47.3351 44.9081 47.3503 44.8734 47.3654C44.6396 47.1338 44.3538 46.9714 44.0334 46.8934C43.4553 46.7527 42.8663 46.9151 42.4073 47.2875C42.0392 47.5841 41.7534 48.015 41.6278 48.5325C41.4914 49.0911 41.5564 49.6627 41.8119 50.1455C41.9439 50.3945 42.1172 50.6024 42.325 50.7648C42.5242 50.9228 42.7559 51.0376 43.0071 51.1004C43.1456 51.1329 43.2864 51.1502 43.4249 51.1502C43.635 51.1502 43.8407 51.1112 44.0377 51.0419C44.2174 51.724 44.5487 52.3216 44.9774 52.7654C45.5728 53.3825 46.3566 53.7029 47.201 53.5427H48.7167C50.9208 53.861 52.6854 52.6463 51.9644 50.2949ZM43.9532 48.9958C43.871 49.4613 43.8623 49.9204 43.9099 50.3577C43.9987 50.4032 44.094 50.4378 44.1914 50.4617C44.475 50.5309 43.6804 50.7193 43.9446 50.6154C43.9316 50.5309 43.9186 50.4443 43.9099 50.3577C43.7281 50.2668 43.57 50.1369 43.4401 49.9723C43.3795 49.8965 43.3253 49.8143 43.2777 49.7255C43.072 49.3379 42.1107 48.801 42.2211 48.3463C42.3315 47.8981 42.5329 47.6166 42.81 47.4564C42.81 47.4542 42.8122 47.4542 42.8122 47.4542C43.033 47.3265 43.3015 47.2745 43.6133 47.2745C43.7194 47.2745 43.8255 47.2875 43.9316 47.3135C44.1416 47.3654 44.33 47.465 44.4924 47.6058C44.1524 47.8959 43.9532 48.3333 43.9532 48.9958Z" fill="#F2F2F2"/>
<path d="M4.54327 70.1426H54.5795C55.0098 70.1426 55.3586 71.1307 55.3586 72.3496L48.8631 77.246C48.8631 78.4649 48.5142 79.4529 48.084 79.4529H4.54327C4.11298 79.4529 3.76416 78.4649 3.76416 77.246V72.3496C3.76416 71.1307 4.11298 70.1426 4.54327 70.1426Z" fill="#F2F2F2"/>
<path d="M25.2269 48.2294L26.1085 54.0936L22.8288 55.0646L22.1174 48.8315C21.975 48.7032 21.8487 48.5524 21.7448 48.3797C21.1797 47.4403 21.4831 46.2207 22.4225 45.6557C23.3618 45.0906 24.5814 45.394 25.1465 46.3334C25.5069 46.9324 25.5127 47.6449 25.2269 48.2294Z" fill="#FFB6B6"/>
<path d="M27.0453 56.5409C27.2792 59.189 25.7051 58.0306 24.4666 60.6158C23.9967 61.5966 22.6024 61.4516 22.0849 62.348C21.2967 63.712 22.0221 69.8373 20.6234 70.5908C19.2182 71.3487 18.5578 69.1575 17.447 68.0294C16.3601 66.9252 15.087 67.3582 14.1581 66.1262C13.2228 64.8899 12.164 63.7878 11.2286 62.558C11.2091 62.5342 11.1918 62.5082 11.1745 62.4844C10.7458 59.111 9.34924 55.1379 9.93385 53.3451C10.7068 53.0636 11.5404 52.8753 12.1921 52.8818C13.3916 52.8969 12.885 53.5508 13.9156 54.0661C14.7817 54.4992 15.8513 56.7639 16.6871 57.2684C17.2825 57.6257 18.7526 60.4643 19.5213 60.2196C20.7793 59.819 22.0178 54.0272 21.7233 52.9662C21.4743 52.0806 20.2315 50.9721 20.1968 50.08C20.1947 50.0475 20.1947 50.0129 20.1968 49.9804C21.4461 50.4286 23.7672 49.2854 25.0468 49.6989C25.9606 49.9956 27.0388 51.1106 27.1016 52.0612C27.1666 53.0355 26.9587 55.5644 27.0453 56.5409Z" fill="#45AAF5"/>
<path d="M41.7706 46.5591C41.5432 46.2971 41.2033 46.1758 40.8612 46.2365L30.8169 48.0314C29.9097 48.196 28.9635 48.0357 28.1602 47.5832L26.6706 46.7453L23.8818 45.1755L23.3405 44.8724L21.0714 43.5949L20.359 43.1944C20.0862 43.0406 19.7636 43.0255 19.4778 43.1554C19.192 43.2831 18.9906 43.5343 18.9257 43.8396L18.222 47.1285L18.17 47.3645L17.7738 49.2201L16.7821 53.8428L16.6263 54.5768L16.557 54.895L16.0503 57.2659L15.955 57.7033L14.6105 63.9845L14.4935 64.528C14.4286 64.8333 14.5065 65.1407 14.7101 65.3702C14.7317 65.3984 14.7577 65.4243 14.7858 65.4503C15.0435 65.6885 15.3964 65.7686 15.7299 65.6668L16.0113 65.5802L18.1311 64.9372L22.9876 63.4649L24.0269 63.1487L25.3043 62.7612C25.4386 62.72 25.575 62.7005 25.7114 62.7005C26.0686 62.7005 26.4194 62.8348 26.6836 63.0881L32.9626 69.0597L33.2397 69.3238C33.4822 69.5555 33.8222 69.6443 34.1469 69.562C34.4263 69.4927 34.6536 69.3109 34.7792 69.0597C34.803 69.0164 34.8225 68.9709 34.8376 68.9233L36.5936 63.6402L36.8946 62.7352L37.8732 59.7905L37.9512 59.5567C42.2458 62.2996 41.5496 53.6395 41.9589 47.5053C42.0694 47.1762 41.9979 46.8211 41.7706 46.5591Z" fill="#F2F2F2"/>
<path d="M40.4717 47.6417C40.2444 47.3797 39.9045 47.2584 39.5624 47.3191L29.5181 49.114C28.6108 49.2785 27.6647 49.1183 26.8614 48.6658L25.3717 47.8279L22.583 46.2581L22.0417 45.955L19.7726 44.6775L19.0602 44.277C18.7874 44.1232 18.4648 44.1081 18.179 44.238C17.8932 44.3657 17.6918 44.6169 17.6269 44.9222L16.9232 48.2111L16.8712 48.4471L16.475 50.3027L15.4833 54.9254L15.3274 55.6594L15.2581 55.9776L14.7515 58.3485L14.6562 58.7859L13.3116 65.0671L13.1947 65.6105C13.1298 65.9158 13.2077 66.2233 13.4112 66.4528C13.4329 66.481 13.4589 66.5069 13.487 66.5329C13.7447 66.7711 14.0976 66.8512 14.431 66.7494L14.7125 66.6628L16.8322 66.0198L21.6888 64.5474L22.728 64.2313L24.0055 63.8438C24.1397 63.8026 24.2762 63.7831 24.4126 63.7831C24.7698 63.7831 25.1206 63.9174 25.3847 64.1707L31.6638 70.1423L31.9409 70.4064C32.1834 70.6381 32.5233 70.7269 32.8481 70.6446C33.1274 70.5753 33.3548 70.3935 33.4803 70.1423C33.5042 70.099 33.5237 70.0535 33.5388 70.0059L35.2948 64.7228L35.5957 63.8178L36.5744 60.8731L36.6523 60.6393C40.9469 63.3822 40.2508 54.7221 40.6601 48.5879C40.7705 48.2588 40.6991 47.9037 40.4717 47.6417Z" fill="#E6E6E6"/>
<path d="M12.1235 66.6157L12.3292 75.3215L24.6681 74.9817L22.1746 65.3461L12.1235 66.6157Z" fill="#FFB6B6"/>
<path d="M26.7444 96.5579C26.8938 95.8521 26.4132 96.4237 26.0884 96.1249L26.0624 96.0989C25.7095 95.707 25.2656 95.5316 25.2721 95.0445C25.2786 94.5573 24.4299 94.9925 23.9535 94.5162C23.8517 94.4144 23.5616 94.2174 23.1654 93.9705C21.9334 93.2041 19.6881 91.9526 19.0147 91.578C18.8891 91.5087 18.8177 91.4697 18.8177 91.4697C18.8177 91.4697 18.8155 91.5065 18.809 91.578C18.7722 92.0305 18.6207 93.8644 18.4366 96.1249C18.4258 96.2678 18.415 96.4129 18.402 96.5579H10.4254C10.4341 96.4107 10.4384 96.2656 10.4406 96.1249C10.4536 95.4494 10.3973 94.8193 10.2414 94.2931C9.95991 93.347 9.70876 92.4462 9.51172 91.578C8.79071 88.4147 8.79938 85.6735 10.8043 82.6877C11.1746 82.1378 11.246 80.3861 11.246 80.3861C11.246 80.3861 11.9281 81.0617 12.1035 81.2306C12.0601 81.1851 11.9735 81.0985 11.8306 80.9556C11.0209 80.1458 11.0468 79.9011 11.4626 79.453C11.5362 79.375 11.6206 79.2906 11.7159 79.1953C12.3503 78.5609 11.7159 79.1953 11.3976 78.8229C11.0815 78.4483 11.8739 77.448 11.8739 77.448L11.573 75.941L11.3976 75.0663L12.3178 74.9061L14.7818 74.4752L24.0574 72.8556L24.2328 73.3038L25.8047 77.3029C26.1923 77.5259 26.5972 78.4028 26.961 79.453C27.6408 81.4124 28.1735 83.9695 28.1735 83.9695L38.4235 96.1249L38.5231 96.244C38.6097 96.3457 38.6898 96.4518 38.7656 96.5579H26.7444Z" fill="#2F2E41"/>
<path d="M13.2075 92.6606H11.6919V96.5579H13.2075V92.6606Z" fill="#E6E6E6"/>
<path d="M4.00538 91.578H20.8938C22.1494 91.578 23.1673 92.5959 23.1673 93.8514C23.1673 95.107 22.1494 96.1249 20.8938 96.1249H4.00538C2.74979 96.1249 1.73193 95.107 1.73193 93.8514C1.73193 92.5959 2.74979 91.578 4.00538 91.578Z" fill="#F2F2F2"/>
<path d="M2.70613 96.1249C1.6897 96.1249 0.865723 95.3009 0.865723 94.2845V72.4161C0.865723 71.3997 1.6897 70.5757 2.70613 70.5757C3.72256 70.5757 4.54654 71.3997 4.54654 72.4161C10.1363 76.6938 7.86436 85.2074 4.54654 94.2845C4.54654 95.3009 3.72256 96.1249 2.70613 96.1249Z" fill="#F2F2F2"/>
<path d="M24.8996 72.0913C24.5428 74.7083 22.0437 72.4031 19.53 71.9679C17.1916 71.5652 14.4115 75.6444 11.9085 75.9886C10.2911 76.2117 11.5664 74.8692 12.125 69.06C12.1965 68.3131 11.2849 63.3613 11.1745 62.4844C10.7458 59.111 9.34924 55.1379 9.93385 53.3451C10.0334 53.0333 10.1937 52.7887 10.4297 52.6241C11.5404 51.8468 12.0362 51.2211 12.7832 50.1038C13.4155 49.1555 13.8745 48.4237 15.0524 48.3479C16.1631 48.2764 17.4211 48.5189 18.4928 48.7528C19.6642 49.0104 18.3348 48.9195 18.6206 49.5734C18.7591 49.8938 18.9973 51.076 19.2701 51.522C20.0982 51.2843 20.989 51.5506 21.5512 52.2035C22.2052 52.9631 22.7943 53.6606 23.2 54.7438C23.8105 56.3634 22.2711 59.2453 22.9509 60.8323C23.5637 62.2657 22.0654 65.3208 22.7344 66.4618C23.5832 67.9147 25.5492 67.3279 24.8996 72.0913Z" fill="#45AAF5"/>
<path d="M29.9131 50.8597L29.8584 51.2892L37.1736 52.2215L37.2283 51.792L29.9131 50.8597Z" fill="white"/>
<path d="M29.5137 52.9878L29.459 53.4172L36.7742 54.3496L36.8289 53.9201L29.5137 52.9878Z" fill="white"/>
<path d="M29.2974 54.7199L29.2427 55.1494L36.5579 56.0817L36.6126 55.6523L29.2974 54.7199Z" fill="white"/>
<path d="M18.6536 48.5578C21.1429 48.5578 23.1608 46.5399 23.1608 44.0506C23.1608 41.5614 21.1429 39.5435 18.6536 39.5435C16.1644 39.5435 14.1465 41.5614 14.1465 44.0506C14.1465 46.5399 16.1644 48.5578 18.6536 48.5578Z" fill="#FFB6B6"/>
<path d="M40.2807 48.5679L35.3931 50.7869L36.2711 53.7559L41.3552 51.226C41.5227 51.2709 41.6994 51.2926 41.8818 51.2864C42.8735 51.2528 43.6502 50.4217 43.6167 49.43C43.5831 48.4382 42.7519 47.6615 41.7602 47.6951C41.1278 47.7165 40.5839 48.063 40.2807 48.5679Z" fill="#FFB6B6"/>
<path d="M36.086 50.2075L34.2021 51.1398L30.8355 51.8004L26.2716 53.6742L25.5794 53.9573L22.3852 53.3506L20.1736 52.9279L19.4447 52.7895L16.7916 52.2837L16.264 52.2507C16.1196 52.2095 15.9637 52.1702 15.7926 52.1351C15.2831 52.0277 14.6727 51.9463 14.0471 51.9148C13.8588 51.9055 13.6679 51.9003 13.4785 51.9018C11.8599 51.9059 10.3073 52.2883 10.2692 53.4431C10.2394 54.3872 10.4277 55.2896 10.7901 56.1033C10.8453 56.2269 10.9031 56.3464 10.9656 56.4655C11.7327 57.9252 13.0794 59.0461 14.7176 59.502C15.0749 59.6009 15.4449 59.6667 15.8257 59.7005L15.9048 59.6928L16.2009 59.6668L16.687 59.6236L17.5791 59.5431L24.5828 58.9143L25.42 58.8394L26.1962 58.7688L26.214 58.7605C27.2051 58.3353 29.9413 57.1617 32.7031 55.947C35.2343 54.8325 36.3023 54.6953 37.0557 54.4002C37.2053 54.3418 37.3418 54.2787 37.476 54.1993C37.5961 54.126 39.7934 52.6268 39.8055 52.5966C39.8452 52.5039 39.8013 52.3074 39.7017 52.0486C39.4188 51.3029 38.6928 50.0643 38.3264 49.4559L38.1594 49.1824L36.086 50.2075Z" fill="#45AAF5"/>
<path d="M4.91281 33.1174C2.19954 33.1174 0 35.3169 0 38.0302V91.6445C0 92.6795 0.322611 93.643 0.872577 94.4355C1.37489 95.163 2.06992 95.7476 2.88186 96.1157H2.88837C3.50761 96.3993 4.18963 96.5574 4.91281 96.5574H41.9223V93.5954H5.12933C4.4408 96.1243 3.98395 96.0507 3.5574 95.9143C3.04642 95.7541 2.57441 95.5029 2.16302 95.1781C2.15868 95.1781 2.15868 95.176 2.15868 95.1738C1.60873 94.7494 1.16704 94.2016 0.866075 93.5672C0.588924 92.9848 0.433037 92.3331 0.433037 91.6445V56.213C0.433037 43.6968 10.5794 33.5504 23.0956 33.5504H65.7394V33.1174L4.91281 33.1174Z" fill="#3F3D56"/>
<path d="M23.793 41.6354C23.7908 42.0988 23.7887 43.0103 23.3881 43.2399L23.2842 43.19C23.2149 43.1467 23.1283 43.0796 23.0352 43.0038C22.7494 42.77 22.3856 42.4474 22.1366 42.4041C22.1236 42.0143 22.1345 41.6246 22.1734 41.2371C22.1843 41.1439 22.1951 41.0508 22.2081 40.9577C22.1713 41.0205 22.1366 41.0833 22.102 41.1483C21.8963 41.5337 21.7274 41.9407 21.604 42.3586C21.1926 42.3629 20.6426 42.3067 20.4196 42.6509C20.097 43.1511 20.5582 44.2163 19.7722 44.6775C19.6055 44.775 19.3825 44.8464 19.0859 44.8789C19.3977 44.9287 19.7939 45.0803 19.9931 45.4787C20.4045 46.3014 20.7552 47.2541 20.569 48.131C20.5409 48.2609 20.5019 48.3887 20.4499 48.5143C20.1338 49.2764 19.402 49.7657 18.865 50.3936C18.8542 50.4045 18.8455 50.4153 18.8369 50.4261C18.4233 50.9198 18.2848 51.3247 18.3281 51.7079C18.406 52.4116 19.0924 53.0395 19.8004 53.9835C20.0624 54.3343 19.2807 56.1552 19.5038 56.5319C19.7311 56.9087 19.8523 57.385 19.6726 57.7878C19.4799 58.2165 19.0469 58.407 18.5662 58.4806C17.1935 57.5387 16.0135 56.3392 15.483 54.9254C15.024 53.7042 15.0478 52.3271 15.8489 50.8158C15.0803 52.1453 14.7901 53.7432 15.0413 55.2588C15.0478 55.3129 15.0565 55.3649 15.0673 55.4169C15.1063 55.6204 15.1712 55.8044 15.2578 55.9776C15.6454 56.7506 16.4508 57.2616 17.0441 57.974C16.7951 58.2251 16.388 58.6084 15.9918 58.9613C15.6541 59.2644 15.3206 59.5415 15.1019 59.6953C14.9547 59.5589 14.801 59.2233 14.6559 58.7859C14.5974 58.6105 14.539 58.4178 14.4848 58.2165C14.1449 56.9975 13.8678 55.4255 13.7963 54.9427C13.5993 55.3129 13.543 56.3587 13.5711 57.4348C13.5755 57.5929 13.582 57.7509 13.5885 57.9068C13.6513 59.2622 11.9732 59.9291 11.0898 58.9006C10.908 58.6863 10.7218 58.446 10.5312 58.1753C10.5074 57.1404 10.6546 56.1011 10.9794 55.1202C10.9881 55.0921 10.9924 55.0791 10.9924 55.0748C10.9491 55.1376 10.4944 56.2678 10.1371 57.1382C9.95311 57.5842 9.79506 57.961 9.72794 58.093C9.79506 57.6925 9.9228 57.1988 10.057 56.716C10.3623 55.6312 10.7066 54.6114 10.4922 54.8929C10.2736 55.1809 10.0765 55.4883 9.90764 55.8088C9.56987 56.4388 9.33388 57.1252 9.21479 57.831C9.20396 57.8938 9.19313 57.9566 9.18665 58.0216C8.98961 57.9718 8.79907 57.9025 8.6172 57.8116C8.04342 57.5149 7.7338 56.8935 7.70132 56.2461C7.64936 55.2328 8.09755 54.3148 9.01992 54.4577C9.37068 54.5118 9.51791 54.304 9.53741 53.964C9.58503 53.2603 9.09787 51.9872 8.81423 51.303C8.69298 51.0107 8.56739 50.7076 8.45913 50.4023C9.05889 49.638 9.37718 48.6507 9.3079 47.6806C9.1022 48.4038 8.73628 49.0794 8.24478 49.6488C8.13869 49.1378 8.13003 48.6268 8.31841 48.1397C8.94847 46.5201 10.2931 47.2065 11.2436 45.7515C12.3543 44.0518 12.0274 43.1641 12.6726 41.2371C12.9497 40.4056 13.6058 39.7084 14.4199 39.3793C15.234 39.0524 16.3946 36.9716 19.4713 39.2559C19.5211 39.2104 19.5709 39.1671 19.6228 39.1282C20.4954 38.4699 21.5694 38.89 22.7191 39.0394C23.9359 39.1974 23.5332 38.9658 24.1892 40.0029C24.4361 40.3948 23.7973 41.1721 23.793 41.6354Z" fill="#2F2E41"/>
<path d="M50.1546 26.5287C50.1546 26.5272 50.1539 26.5265 50.1524 26.5265C49.9121 26.2624 49.5916 26.0718 49.23 25.9917H49.2279C49.1023 25.9636 48.9746 25.9484 48.8403 25.9484H37.6918C36.7066 25.9484 35.9033 26.7517 35.9033 27.7369V38.8854C35.9033 39.8706 36.7066 40.6717 37.6918 40.6717H48.8403C49.8255 40.6717 50.6266 39.8706 50.6266 38.8854V27.7369C50.6266 27.2714 50.449 26.847 50.1546 26.5287ZM50.4166 38.8854C50.4166 39.7558 49.7107 40.4617 48.8403 40.4617H37.6918C36.8214 40.4617 36.1155 39.7558 36.1155 38.8854V33.2646C36.1155 33.2148 36.1155 33.1672 36.1177 33.1174C36.1242 32.8012 36.1502 32.4895 36.1978 32.182C36.2043 32.13 36.2151 32.0802 36.2238 32.0283C36.4598 30.6794 37.0768 29.4582 37.9602 28.4882L37.9711 28.4774C39.2702 27.0527 41.1409 26.1585 43.2195 26.1585H48.8403C49.7107 26.1585 50.4166 26.8665 50.4166 27.7369V38.8854Z" fill="#E6E6E6"/>
<path d="M36.1011 33.3111C36.1011 29.3542 39.6455 25.8929 43.5547 25.2802C48.5028 24.5046 53.052 27.1332 52.3974 31.6023C51.8239 35.5174 45.1038 42.9281 43.2657 39.4241C41.1624 35.4144 36.1011 37.268 36.1011 33.3111Z" fill="#45AAF5"/>
<path d="M45.3803 30.1729H41.7817C41.6908 30.1729 41.6172 30.2466 41.6172 30.3375C41.6172 30.4284 41.6908 30.502 41.7817 30.502H45.3803C45.4712 30.502 45.5448 30.4284 45.5448 30.3375C45.5448 30.2466 45.4712 30.1729 45.3803 30.1729Z" fill="white"/>
<path d="M45.3803 33.6827H41.7817C41.6908 33.6827 41.6172 33.7563 41.6172 33.8451C41.6172 33.936 41.6908 34.0118 41.7817 34.0118H45.3803C45.4712 34.0118 45.5448 33.936 45.5448 33.8451C45.5448 33.7563 45.4712 33.6827 45.3803 33.6827Z" fill="white"/>
<path d="M47.3118 31.9289H39.8506C39.7596 31.9289 39.686 32.0025 39.686 32.0935C39.686 32.1844 39.7596 32.258 39.8506 32.258H47.3118C47.4028 32.258 47.4764 32.1844 47.4764 32.0935C47.4764 32.0025 47.4028 31.9289 47.3118 31.9289Z" fill="white"/>
<path d="M11.017 9.33469C10.7782 9.33469 10.584 9.5289 10.584 9.76772V16.4798C10.584 16.7186 10.7782 16.9128 11.017 16.9128C11.2558 16.9128 11.4501 16.7186 11.4501 16.4798V9.76772C11.4501 9.5289 11.2558 9.33469 11.017 9.33469Z" fill="#3F3D56"/>
<path d="M15.261 15.8024C16.7514 15.8024 17.9596 14.6196 17.9596 13.1607C17.9596 11.7017 16.7514 10.519 15.261 10.519C13.7707 10.519 12.5625 11.7017 12.5625 13.1607C12.5625 14.6196 13.7707 15.8024 15.261 15.8024Z" fill="#45AAF5"/>
<path d="M36.8942 12.2569H22.3691C21.8708 12.2569 21.4653 11.8515 21.4653 11.3532C21.4653 10.8549 21.8708 10.4495 22.3691 10.4495H36.8942C37.3925 10.4495 37.7979 10.8549 37.7979 11.3532C37.7979 11.8515 37.3925 12.2569 36.8942 12.2569Z" fill="#F2F2F2"/>
<path d="M48.2297 15.3157H22.3691C21.8708 15.3157 21.4653 14.9103 21.4653 14.412C21.4653 13.9137 21.8708 13.5083 22.3691 13.5083H48.2297C48.728 13.5083 49.1334 13.9137 49.1334 14.412C49.1334 14.9103 48.728 15.3157 48.2297 15.3157Z" fill="#F2F2F2"/>
<path d="M46.8979 90.8202C46.6591 90.8202 46.4648 91.0144 46.4648 91.2532V97.9653C46.4648 98.2041 46.6591 98.3983 46.8979 98.3983C47.1367 98.3983 47.3309 98.2041 47.3309 97.9653V91.2532C47.3309 91.0144 47.1367 90.8202 46.8979 90.8202Z" fill="#3F3D56"/>
<path d="M51.1419 97.2878C52.6322 97.2878 53.8404 96.1051 53.8404 94.6462C53.8404 93.1872 52.6322 92.0045 51.1419 92.0045C49.6515 92.0045 48.4434 93.1872 48.4434 94.6462C48.4434 96.1051 49.6515 97.2878 51.1419 97.2878Z" fill="#45AAF5"/>
<path d="M72.7751 93.7424H58.2499C57.7516 93.7424 57.3462 93.337 57.3462 92.8387C57.3462 92.3404 57.7516 91.935 58.2499 91.935H72.7751C73.2734 91.935 73.6788 92.3404 73.6788 92.8387C73.6788 93.337 73.2734 93.7424 72.7751 93.7424Z" fill="#F2F2F2"/>
<path d="M84.1105 96.8012H58.2499C57.7516 96.8012 57.3462 96.3958 57.3462 95.8975C57.3462 95.3992 57.7516 94.9937 58.2499 94.9937H84.1105C84.6088 94.9937 85.0143 95.3992 85.0143 95.8975C85.0143 96.3958 84.6088 96.8012 84.1105 96.8012Z" fill="#F2F2F2"/>
<path d="M21.8662 37.2519C22.3718 37.2519 22.7817 36.8329 22.7817 36.316C22.7817 35.7991 22.3718 35.3801 21.8662 35.3801C21.3606 35.3801 20.9507 35.7991 20.9507 36.316C20.9507 36.8329 21.3606 37.2519 21.8662 37.2519Z" fill="#3F3D56"/>
<path d="M25.0288 37.2519C25.5344 37.2519 25.9443 36.8329 25.9443 36.316C25.9443 35.7991 25.5344 35.3801 25.0288 35.3801C24.5232 35.3801 24.1133 35.7991 24.1133 36.316C24.1133 36.8329 24.5232 37.2519 25.0288 37.2519Z" fill="#3F3D56"/>
<path d="M28.1914 37.2519C28.697 37.2519 29.1069 36.8329 29.1069 36.316C29.1069 35.7991 28.697 35.3801 28.1914 35.3801C27.6858 35.3801 27.2759 35.7991 27.2759 36.316C27.2759 36.8329 27.6858 37.2519 28.1914 37.2519Z" fill="#3F3D56"/>
<path d="M85.3906 18.7846C85.8962 18.7846 86.3061 18.3656 86.3061 17.8487C86.3061 17.3318 85.8962 16.9128 85.3906 16.9128C84.885 16.9128 84.4751 17.3318 84.4751 17.8487C84.4751 18.3656 84.885 18.7846 85.3906 18.7846Z" fill="#3F3D56"/>
<path d="M88.5532 18.7846C89.0588 18.7846 89.4687 18.3656 89.4687 17.8487C89.4687 17.3318 89.0588 16.9128 88.5532 16.9128C88.0476 16.9128 87.6377 17.3318 87.6377 17.8487C87.6377 18.3656 88.0476 18.7846 88.5532 18.7846Z" fill="#3F3D56"/>
<path d="M91.7158 18.7846C92.2214 18.7846 92.6313 18.3656 92.6313 17.8487C92.6313 17.3318 92.2214 16.9128 91.7158 16.9128C91.2102 16.9128 90.8003 17.3318 90.8003 17.8487C90.8003 18.3656 91.2102 18.7846 91.7158 18.7846Z" fill="#3F3D56"/>
<path d="M57.6912 55.765C57.6549 55.8886 57.786 55.9927 57.8982 55.9293C58.6813 55.4869 59.6387 55.0553 60.4923 54.8223C60.629 54.785 60.6334 54.5936 60.4991 54.5485L59.3678 54.1685L63.6883 48.7282L63.3941 48.4945L59.0736 53.9349L58.4469 52.9187C58.3726 52.7981 58.1872 52.8458 58.1818 52.9873C58.1482 53.8715 57.9447 54.9018 57.6912 55.765Z" fill="#3F3D56"/>
<path d="M63.8267 66.4722C63.9447 66.5241 64.0647 66.4074 64.0162 66.288C63.6776 65.4547 63.3721 64.45 63.2502 63.5736C63.2307 63.4332 63.0415 63.4044 62.9795 63.5318L62.4579 64.6052L57.6151 59.6241L57.3457 59.8859L62.1886 64.8671L61.1005 65.3586C60.9714 65.4169 60.9949 65.6068 61.1347 65.6303C62.0073 65.7768 63.0031 66.1105 63.8267 66.4722Z" fill="#3F3D56"/>
</g>
<defs>
<clipPath id="clip0_834_852">
<rect width="120" height="98.3983" fill="white"/>
</clipPath>
</defs>
</svg>
