<svg width="48" height="48" viewBox="0 0 48 48" fill="none" xmlns="http://www.w3.org/2000/svg">
<path fill-rule="evenodd" clip-rule="evenodd" d="M12 11.5C11.337 11.5 10.7011 11.7634 10.2322 12.2322C9.76339 12.7011 9.5 13.337 9.5 14V38C9.5 38.663 9.76339 39.2989 10.2322 39.7678C10.7011 40.2366 11.337 40.5 12 40.5H36C36.663 40.5 37.2989 40.2366 37.7678 39.7678C38.2366 39.2989 38.5 38.663 38.5 38V14C38.5 13.337 38.2366 12.7011 37.7678 12.2322C37.2989 11.7634 36.663 11.5 36 11.5H12ZM8.11091 10.1109C9.14236 9.07946 10.5413 8.5 12 8.5H36C37.4587 8.5 38.8576 9.07946 39.8891 10.1109C40.9205 11.1424 41.5 12.5413 41.5 14V38C41.5 39.4587 40.9205 40.8576 39.8891 41.8891C38.8576 42.9205 37.4587 43.5 36 43.5H12C10.5413 43.5 9.14236 42.9205 8.11091 41.8891C7.07946 40.8576 6.5 39.4587 6.5 38V14C6.5 12.5413 7.07946 11.1424 8.11091 10.1109Z" fill="#333132"/>
<path fill-rule="evenodd" clip-rule="evenodd" d="M32 4.5C32.8284 4.5 33.5 5.17157 33.5 6V14C33.5 14.8284 32.8284 15.5 32 15.5C31.1716 15.5 30.5 14.8284 30.5 14V6C30.5 5.17157 31.1716 4.5 32 4.5Z" fill="#333132"/>
<path fill-rule="evenodd" clip-rule="evenodd" d="M16 4.5C16.8284 4.5 17.5 5.17157 17.5 6V14C17.5 14.8284 16.8284 15.5 16 15.5C15.1716 15.5 14.5 14.8284 14.5 14V6C14.5 5.17157 15.1716 4.5 16 4.5Z" fill="#333132"/>
<path fill-rule="evenodd" clip-rule="evenodd" d="M6.5 22C6.5 21.1716 7.17157 20.5 8 20.5H40C40.8284 20.5 41.5 21.1716 41.5 22C41.5 22.8284 40.8284 23.5 40 23.5H8C7.17157 23.5 6.5 22.8284 6.5 22Z" fill="#333132"/>
<path fill-rule="evenodd" clip-rule="evenodd" d="M20.5 30C20.5 29.1716 21.1716 28.5 22 28.5H24C24.8284 28.5 25.5 29.1716 25.5 30C25.5 30.8284 24.8284 31.5 24 31.5H22C21.1716 31.5 20.5 30.8284 20.5 30Z" fill="#333132"/>
<path fill-rule="evenodd" clip-rule="evenodd" d="M24 28.5C24.8284 28.5 25.5 29.1716 25.5 30V36C25.5 36.8284 24.8284 37.5 24 37.5C23.1716 37.5 22.5 36.8284 22.5 36V30C22.5 29.1716 23.1716 28.5 24 28.5Z" fill="#333132"/>
</svg>
