<svg width="49" height="48" viewBox="0 0 49 48" fill="none" xmlns="http://www.w3.org/2000/svg">
<mask id="mask0_527_1492" style="mask-type:alpha" maskUnits="userSpaceOnUse" x="0" y="0" width="49" height="48">
<path d="M0.703613 0H48.7036V48H0.703613V0Z" fill="#D9D9D9"/>
</mask>
<g mask="url(#mask0_527_1492)">
<path d="M22.3536 44C21.4536 44 20.6786 43.7 20.0286 43.1C19.3786 42.5 18.9869 41.7667 18.8536 40.9L18.4036 37.6C17.9702 37.4333 17.5619 37.2333 17.1786 37C16.7952 36.7667 16.4202 36.5167 16.0536 36.25L12.9536 37.55C12.1202 37.9167 11.2869 37.95 10.4536 37.65C9.62024 37.35 8.97024 36.8167 8.50357 36.05L6.15357 31.95C5.68691 31.1833 5.55357 30.3667 5.75357 29.5C5.95357 28.6333 6.40357 27.9167 7.10357 27.35L9.75357 25.35C9.72024 25.1167 9.70357 24.8917 9.70357 24.675V23.325C9.70357 23.1083 9.72024 22.8833 9.75357 22.65L7.10357 20.65C6.40357 20.0833 5.95357 19.3667 5.75357 18.5C5.55357 17.6333 5.68691 16.8167 6.15357 16.05L8.50357 11.95C8.97024 11.1833 9.62024 10.65 10.4536 10.35C11.2869 10.05 12.1202 10.0833 12.9536 10.45L16.0536 11.75C16.4202 11.4833 16.8036 11.2333 17.2036 11C17.6036 10.7667 18.0036 10.5667 18.4036 10.4L18.8536 7.1C18.9869 6.23333 19.3786 5.5 20.0286 4.9C20.6786 4.3 21.4536 4 22.3536 4H27.0536C27.9536 4 28.7286 4.3 29.3786 4.9C30.0286 5.5 30.4202 6.23333 30.5536 7.1L31.0036 10.4C31.4369 10.5667 31.8452 10.7667 32.2286 11C32.6119 11.2333 32.9869 11.4833 33.3536 11.75L36.4536 10.45C37.2869 10.0833 38.1202 10.05 38.9536 10.35C39.7869 10.65 40.4369 11.1833 40.9036 11.95L43.2536 16.05C43.7202 16.8167 43.8536 17.6333 43.6536 18.5C43.4536 19.3667 43.0036 20.0833 42.3036 20.65L39.6536 22.65C39.6869 22.8833 39.7036 23.1083 39.7036 23.325V24.675C39.7036 24.8917 39.6702 25.1167 39.6036 25.35L42.2536 27.35C42.9536 27.9167 43.4036 28.6333 43.6036 29.5C43.8036 30.3667 43.6702 31.1833 43.2036 31.95L40.8036 36.05C40.3369 36.8167 39.6869 37.35 38.8536 37.65C38.0202 37.95 37.1869 37.9167 36.3536 37.55L33.3536 36.25C32.9869 36.5167 32.6036 36.7667 32.2036 37C31.8036 37.2333 31.4036 37.4333 31.0036 37.6L30.5536 40.9C30.4202 41.7667 30.0286 42.5 29.3786 43.1C28.7286 43.7 27.9536 44 27.0536 44H22.3536ZM22.7036 40H26.6536L27.3536 34.7C28.3869 34.4333 29.3452 34.0417 30.2286 33.525C31.1119 33.0083 31.9202 32.3833 32.6536 31.65L37.6036 33.7L39.5536 30.3L35.2536 27.05C35.4202 26.5833 35.5369 26.0917 35.6036 25.575C35.6702 25.0583 35.7036 24.5333 35.7036 24C35.7036 23.4667 35.6702 22.9417 35.6036 22.425C35.5369 21.9083 35.4202 21.4167 35.2536 20.95L39.5536 17.7L37.6036 14.3L32.6536 16.4C31.9202 15.6333 31.1119 14.9917 30.2286 14.475C29.3452 13.9583 28.3869 13.5667 27.3536 13.3L26.7036 8H22.7536L22.0536 13.3C21.0202 13.5667 20.0619 13.9583 19.1786 14.475C18.2952 14.9917 17.4869 15.6167 16.7536 16.35L11.8036 14.3L9.85357 17.7L14.1536 20.9C13.9869 21.4 13.8702 21.9 13.8036 22.4C13.7369 22.9 13.7036 23.4333 13.7036 24C13.7036 24.5333 13.7369 25.05 13.8036 25.55C13.8702 26.05 13.9869 26.55 14.1536 27.05L9.85357 30.3L11.8036 33.7L16.7536 31.6C17.4869 32.3667 18.2952 33.0083 19.1786 33.525C20.0619 34.0417 21.0202 34.4333 22.0536 34.7L22.7036 40ZM24.8036 31C26.7369 31 28.3869 30.3167 29.7536 28.95C31.1202 27.5833 31.8036 25.9333 31.8036 24C31.8036 22.0667 31.1202 20.4167 29.7536 19.05C28.3869 17.6833 26.7369 17 24.8036 17C22.8369 17 21.1786 17.6833 19.8286 19.05C18.4786 20.4167 17.8036 22.0667 17.8036 24C17.8036 25.9333 18.4786 27.5833 19.8286 28.95C21.1786 30.3167 22.8369 31 24.8036 31Z" fill="#1C1B1F"/>
</g>
</svg>
