<?xml version="1.0" encoding="UTF-8"?>
<svg id="_レイヤー_2" data-name="レイヤー_2" xmlns="http://www.w3.org/2000/svg" viewBox="0 0 320.57 222.31">
  <defs>
    <style>
      .cls-1 {
        fill: #f6f9fa;
        stroke: #999;
        stroke-width: 2.83px;
      }

      .cls-1, .cls-2 {
        stroke-linecap: round;
        stroke-linejoin: round;
      }

      .cls-2 {
        fill: none;
        stroke: #F54545;
        stroke-width: 8.5px;
      }
    </style>
  </defs>
  <g id="_レイヤー_2-2" data-name="_レイヤー_2">
    <g id="_レイヤー_2-2">
      <path class="cls-1" d="M28.27,219.04c-3.78,9.68-47.34-21.07-14.96-36.23-10.85,3.49-20.33-42.6,9.45-38.19-6.44,2.42-15.83-44.48,16.14-36.61-4.87.7-7.53-31.08,12.6-24.41,0,0-11.03-21.65,12.99-23.62-3.88-2.38,7.39-34.86,25.2-25.99,0,0,11.02-27.95,33.47-13.39-5.85-4.6,24.59-27.32,37.68-9.83-1.52-7.33,33.53-12.34,39.39,9.01-.9-6.91,32.62-2.79,31.31,13.56,1.19-5.56,31.97,7.5,26.28,27.71,0,0,19.71-2.29,14.29,20.57,3.81-2.59,25.47,11.77,12.86,25.71,5.19-8.71,36.21,18.78,14.57,37.43,0,0,15.71-3.43,15.71,9.43,0,0,11.71,15.71-5.43,29.43,0,0,11.71,3,8.86,18.71,2.32,10.73-36.19,38.78-35.71-9.43,0,0,4.86-9.14,14-9.43,0,0-18,1.71-15.43-22.57,0,0,6.57-10,11.71-12-10.33,4.54-36.94-16.06-15.57-37.86,0,0-29.29,5.6-13.16-20.41-7.67,6.21-25.76-1.19-12.83-21.72-21.99,17.28-31.09.19-22.71-28.96-9.62,10.17-34.02,19.06-30.28-13.17-1.16,7.76-31.53,44.38-37.85-4.93.93,13.93-20.15,42.17-36.87,6.58,0,0,5.61,42.11-31.48,9.1,2.87,11.05,9.49,55.63-21.44,30.96,0,0,14.97,31.65-12.25,21.44,0,0,15.31,26.88-13.27,21.78,6.33-1.53,12.42,40.11-16.33,36.41,8.34.77,23.28,29.93-2.72,35.73,8.49-.23,24.15,21.25,1.79,35.19h0Z"/>
    </g>
    <g id="_レイヤー_2-2-2" data-name="_レイヤー_2-2">
      <path class="cls-2" d="M89.69,33.99s11.02-27.95,33.47-13.39c-5.85-4.6,24.59-27.32,37.68-9.83-1.52-7.33,33.53-12.34,39.39,9.01-.9-6.91,32.62-2.79,31.31,13.56"/>
    </g>
  </g>
</svg>