<?xml version="1.0" encoding="UTF-8"?>
<svg xmlns="http://www.w3.org/2000/svg" version="1.1" viewBox="0 0 320.6 219.5">
  <defs>
    <style>
      .cls-1 {
        fill: #f6f9fa;
        stroke: #999;
        stroke-width: 2.8px;
      }

      .cls-1, .cls-2 {
        stroke-linecap: round;
        stroke-linejoin: round;
      }

      .cls-2 {
        fill: none;
        stroke: #45aaf5;
        stroke-width: 8.5px;
      }
    </style>
  </defs>
  <!-- Generator: Adobe Illustrator 28.6.0, SVG Export Plug-In . SVG Version: 1.2.0 Build 709)  -->
  <g>
    <g id="_レイヤー_2">
      <g id="_レイヤー_2-2">
        <path class="cls-1" d="M28.3,216.2c-3.8,9.7-47.3-21.1-15-36.2-10.9,3.5-20.3-42.6,9.4-38.2-6.4,2.4-15.8-44.5,16.1-36.6-4.9.7-7.5-31.1,12.6-24.4,0,0-11-21.7,13-23.6-3.9-2.4,7.4-34.9,25.2-26,0,0,11-28,33.5-13.4-5.8-4.6,24.6-27.3,37.7-9.8-1.5-7.3,33.5-12.3,39.4,9-.9-6.9,32.6-2.8,31.3,13.6,1.2-5.6,32,7.5,26.3,27.7,0,0,19.7-2.3,14.3,20.6,3.8-2.6,25.5,11.8,12.9,25.7,5.2-8.7,36.2,18.8,14.6,37.4,0,0,15.7-3.4,15.7,9.4,0,0,11.7,15.7-5.4,29.4,0,0,11.7,3,8.9,18.7,2.3,10.7-36.2,38.8-35.7-9.4,0,0,4.9-9.1,14-9.4,0,0-18,1.7-15.4-22.6,0,0,6.6-10,11.7-12-10.3,4.5-36.9-16.1-15.6-37.9,0,0-29.3,5.6-13.2-20.4-7.7,6.2-25.8-1.2-12.8-21.7-22,17.3-31.1.2-22.7-29-9.6,10.2-34,19.1-30.3-13.2-1.2,7.8-31.5,44.4-37.9-4.9.9,13.9-20.1,42.2-36.9,6.6,0,0,5.6,42.1-31.5,9.1,2.9,11,9.5,55.6-21.4,31,0,0,15,31.7-12.2,21.4,0,0,15.3,26.9-13.3,21.8,6.3-1.5,12.4,40.1-16.3,36.4,8.3.8,23.3,29.9-2.7,35.7,8.5-.2,24.2,21.2,1.8,35.2h0Z"/>
      </g>
      <g id="_レイヤー_2-2-2" data-name="_レイヤー_2-2">
        <path class="cls-2" d="M231.6,30.5c1.2-5.6,32,7.5,26.3,27.7,0,0,19.7-2.3,14.3,20.6,3.8-2.6,25.5,11.8,12.9,25.7,5.2-8.7,36.2,18.8,14.6,37.4,0,0,15.7-3.4,15.7,9.4,0,0,11.7,15.7-5.4,29.4,0,0,23.4,13.1-.7,32.3"/>
      </g>
    </g>
  </g>
</svg>