<svg width="48" height="48" viewBox="0 0 48 48" fill="none" xmlns="http://www.w3.org/2000/svg">
<path fill-rule="evenodd" clip-rule="evenodd" d="M24 4.5C24.8284 4.5 25.5 5.17157 25.5 6V8C25.5 8.82843 24.8284 9.5 24 9.5C23.1716 9.5 22.5 8.82843 22.5 8V6C22.5 5.17157 23.1716 4.5 24 4.5ZM10.1393 10.1393C10.7251 9.55355 11.6749 9.55355 12.2607 10.1393L13.6607 11.5393C14.2464 12.1251 14.2464 13.0749 13.6607 13.6607C13.0749 14.2464 12.1251 14.2464 11.5393 13.6607L10.1393 12.2607C9.55355 11.6749 9.55355 10.7251 10.1393 10.1393ZM37.8607 10.1393C38.4464 10.7251 38.4464 11.6749 37.8607 12.2607L36.4607 13.6607C35.8749 14.2464 34.9251 14.2464 34.3393 13.6607C33.7536 13.0749 33.7536 12.1251 34.3393 11.5393L35.7393 10.1393C36.3251 9.55355 37.2749 9.55355 37.8607 10.1393ZM4.5 24C4.5 23.1716 5.17157 22.5 6 22.5H8C8.82843 22.5 9.5 23.1716 9.5 24C9.5 24.8284 8.82843 25.5 8 25.5H6C5.17157 25.5 4.5 24.8284 4.5 24ZM38.5 24C38.5 23.1716 39.1716 22.5 40 22.5H42C42.8284 22.5 43.5 23.1716 43.5 24C43.5 24.8284 42.8284 25.5 42 25.5H40C39.1716 25.5 38.5 24.8284 38.5 24Z" fill="#333132"/>
<path fill-rule="evenodd" clip-rule="evenodd" d="M24 15.5C22.216 15.5 20.4772 16.0613 19.03 17.1044C17.5827 18.1476 16.5003 19.6196 15.9362 21.3121C15.372 23.0045 15.3547 24.8316 15.8866 26.5344C16.4186 28.2373 17.4728 29.7296 18.9 30.8C18.9547 30.8411 19.0066 30.8858 19.0553 30.934C20.0034 31.8726 20.7174 33.0212 21.1393 34.2869C21.5476 35.5119 21.6713 36.8133 21.5017 38.0923C21.5249 38.7218 21.7852 39.3207 22.2322 39.7678C22.7011 40.2366 23.337 40.5 24 40.5C24.663 40.5 25.2989 40.2366 25.7678 39.7678C26.2148 39.3207 26.4751 38.7218 26.4983 38.0923C26.3287 36.8133 26.4524 35.5119 26.8607 34.2869C27.2826 33.0212 27.9966 31.8726 28.9447 30.934C28.9934 30.8858 29.0453 30.8411 29.1 30.8C30.5272 29.7296 31.5814 28.2373 32.1134 26.5344C32.6453 24.8316 32.628 23.0045 32.0638 21.3121C31.4997 19.6196 30.4173 18.1476 28.97 17.1044C27.5228 16.0613 25.784 15.5 24 15.5ZM17.2758 14.6707C19.2339 13.2594 21.5864 12.5 24 12.5C26.4136 12.5 28.7661 13.2594 30.7242 14.6707C32.6822 16.082 34.1466 18.0736 34.9099 20.3634C35.6731 22.6532 35.6966 25.1251 34.9769 27.4289C34.2684 29.697 32.8751 31.689 30.9897 33.132C30.4088 33.7269 29.97 34.446 29.7068 35.2356C29.4338 36.0546 29.3574 36.9263 29.4838 37.7803C29.4946 37.8531 29.5 37.9265 29.5 38C29.5 39.4587 28.9205 40.8576 27.8891 41.8891C26.8576 42.9205 25.4587 43.5 24 43.5C22.5413 43.5 21.1424 42.9205 20.1109 41.8891C19.0795 40.8576 18.5 39.4587 18.5 38C18.5 37.9265 18.5054 37.8531 18.5162 37.7803C18.6426 36.9263 18.5662 36.0546 18.2932 35.2356C18.03 34.446 17.5912 33.7269 17.0103 33.132C15.1249 31.689 13.7316 29.697 13.0231 27.4289C12.3034 25.1251 12.3269 22.6532 13.0901 20.3634C13.8534 18.0736 15.3178 16.082 17.2758 14.6707Z" fill="#333132"/>
<path fill-rule="evenodd" clip-rule="evenodd" d="M17.8999 34C17.8999 33.1716 18.5715 32.5 19.3999 32.5H28.5999C29.4283 32.5 30.0999 33.1716 30.0999 34C30.0999 34.8284 29.4283 35.5 28.5999 35.5H19.3999C18.5715 35.5 17.8999 34.8284 17.8999 34Z" fill="#333132"/>
</svg>
