<svg width="140" height="104" viewBox="0 0 140 104" fill="none" xmlns="http://www.w3.org/2000/svg">
<g clip-path="url(#clip0_834_651)">
<path d="M129.959 102.698C128.233 102.626 126.66 101.929 125.949 100.85C125.916 100.799 125.884 100.748 125.855 100.696C125.595 100.236 125.514 99.7077 125.798 99.2545C126.082 98.8013 126.792 98.4572 127.504 98.5287C128.216 98.6002 128.772 99.1685 128.478 99.6182C128.412 98.7093 128.358 97.7541 129.091 96.963C129.494 96.5495 130.02 96.2775 130.591 96.1876C132.068 95.9279 133.048 96.7629 133.244 97.6054C133.389 98.2277 133.189 98.8602 132.99 99.476C133.604 98.7497 135.065 98.4265 136.184 98.7695C137.303 99.1126 137.923 100.073 137.541 100.872C137.091 101.811 135.59 102.296 134.195 102.553C133.044 102.765 131.317 102.754 129.959 102.698Z" fill="#F2F2F2"/>
<path d="M10.1861 102.698C11.9124 102.626 13.4851 101.929 14.1964 100.85C14.2298 100.799 14.2611 100.748 14.2904 100.696C14.5502 100.236 14.6313 99.7077 14.3473 99.2545C14.0633 98.8013 13.3533 98.4572 12.6414 98.5287C11.9296 98.6002 11.3727 99.1685 11.6676 99.6182C11.7328 98.7093 11.7874 97.7541 11.0546 96.963C10.6512 96.5495 10.1249 96.2775 9.55435 96.1876C8.07762 95.9279 7.09725 96.7629 6.90089 97.6054C6.75602 98.2277 6.95613 98.8602 7.15543 99.476C6.54124 98.7497 5.08064 98.4265 3.96144 98.7695C2.84224 99.1126 2.22202 100.073 2.60432 100.872C3.05457 101.811 4.55559 102.296 5.94986 102.553C7.10151 102.765 8.82774 102.754 10.1861 102.698Z" fill="#F2F2F2"/>
<path d="M140 102.54H0V103.101H140V102.54Z" fill="#CCCCCC"/>
<path d="M56.4494 17.634C56.4439 17.7469 56.4472 17.8601 56.4595 17.9725L48.7007 24.484L46.3867 23.6462L44.666 26.9728L49.7247 29.3807L58.2071 19.8621C58.6354 19.9398 59.0772 19.8853 59.4738 19.7057C59.8703 19.5262 60.2028 19.2302 60.427 18.8571C60.6513 18.484 60.7566 18.0515 60.729 17.6171C60.7015 17.1826 60.5423 16.7669 60.2727 16.4251C60.0031 16.0834 59.6358 15.8318 59.2198 15.7038C58.8037 15.5759 58.3585 15.5776 57.9435 15.7088C57.5284 15.8401 57.1631 16.0945 56.8962 16.4384C56.6293 16.7822 56.4734 17.1992 56.4492 17.6338L56.4494 17.634Z" fill="#A0616A"/>
<path d="M46.0432 28.5687L38.5507 25.8636C38.2101 25.7407 37.8971 25.5518 37.6295 25.3079C37.3618 25.064 37.1449 24.7698 36.991 24.442C36.8371 24.1143 36.7492 23.7594 36.7324 23.3977C36.7157 23.036 36.7703 22.6745 36.8933 22.3339C37.0162 21.9933 37.205 21.6803 37.4489 21.4126C37.6928 21.145 37.9871 20.9281 38.3148 20.7742C38.9768 20.4633 39.7351 20.4282 40.4229 20.6765L47.9155 23.3816C48.1447 23.4643 48.3317 23.6347 48.4353 23.8553C48.5389 24.0759 48.5507 24.3286 48.4679 24.5578L47.2198 28.0161C47.1367 28.2452 46.9663 28.432 46.7457 28.5355C46.5251 28.6391 46.2725 28.651 46.0432 28.5685L46.0432 28.5687Z" fill="#45AAF5"/>
<path d="M40.556 54.9151H43.06L44.2512 45.2565H40.5557L40.556 54.9151Z" fill="#A0616A"/>
<path d="M47.889 57.2403L40.0192 57.2407L40.019 54.2001L44.8482 54.1998C45.2475 54.1998 45.6429 54.2784 46.0118 54.4312C46.3807 54.584 46.7159 54.808 46.9983 55.0903C47.2806 55.3726 47.5046 55.7078 47.6575 56.0767C47.8103 56.4456 47.889 56.841 47.889 57.2403Z" fill="#2F2E41"/>
<path d="M34.3672 51.6802L36.4156 53.1204L42.9455 45.9048L39.9225 43.7793L34.3672 51.6802Z" fill="#A0616A"/>
<path d="M38.7818 57.3062L32.3442 52.781L34.0926 50.2937L38.043 53.0705C38.3696 53.3001 38.6478 53.5918 38.8617 53.929C39.0756 54.2661 39.221 54.642 39.2896 55.0353C39.3582 55.4286 39.3487 55.8316 39.2616 56.2213C39.1745 56.6109 39.0114 56.9795 38.7818 57.3062Z" fill="#2F2E41"/>
<path d="M46.0352 37.5166C46.0352 37.5166 52.2842 36.7794 51.1626 40.8343C50.0409 44.8892 37.543 48.3913 37.543 48.3913L46.0352 37.5166Z" fill="#A0616A"/>
<path d="M41.7338 16.8256C44.5044 16.8256 46.7503 14.5796 46.7503 11.809C46.7503 9.03849 44.5044 6.79252 41.7338 6.79252C38.9633 6.79252 36.7173 9.03849 36.7173 11.809C36.7173 14.5796 38.9633 16.8256 41.7338 16.8256Z" fill="#A0616A"/>
<path d="M25.7359 47.5611C22.8813 44.2367 21.8826 39.1361 26.4346 34.8933C27.5589 33.8712 28.8319 33.0258 30.2101 32.386L33.8786 22.1256C34.2597 21.0541 34.9584 20.1242 35.8817 19.4602C36.8049 18.7961 37.9088 18.4293 39.0459 18.4089C40.1498 18.3612 41.2414 18.6565 42.1708 19.2542C43.1002 19.8519 43.8217 20.7227 44.2363 21.7469C44.6843 22.7889 44.7356 23.9589 44.3803 25.0361C43.2881 28.437 41.8539 31.7184 40.0996 34.8299L40.2892 36.3475L49.5627 37.1718L49.4762 37.3124C49.4311 37.3858 44.8925 44.3009 39.0863 48.891C37.101 50.4603 35.0482 51.1108 33.1106 51.1106C30.1726 51.1113 27.5004 49.6155 25.7359 47.5611Z" fill="#45AAF5"/>
<path d="M24.8607 13.3831C25.7482 12.3255 26.1289 10.9423 26.4352 9.5959C26.9197 7.46587 27.2947 5.26332 28.3712 3.3624C29.4477 1.46149 31.4259 -0.11351 33.6071 0.00642728C35.7759 0.125713 37.5292 1.87051 38.4598 3.85568C38.6851 3.76822 38.9263 3.72905 39.1677 3.7407C39.4091 3.75235 39.6454 3.81456 39.8612 3.9233C40.532 4.29061 40.7828 5.33469 40.2245 5.85746C40.8117 5.57785 41.4512 5.42497 42.1015 5.40877C42.7517 5.39257 43.398 5.51341 43.9984 5.76343C44.7706 6.09215 45.4371 6.62747 45.9246 7.3105C46.4121 7.99354 46.7018 8.79781 46.7617 9.63485C46.7851 9.97456 46.7385 10.3155 46.6247 10.6364C46.511 10.9574 46.3325 11.2516 46.1005 11.5007C45.138 12.4915 43.7767 12.1498 42.5662 11.8974C41.4229 11.659 40.0304 11.5946 39.3862 12.684C39.1324 13.1379 39.0614 13.6715 39.1876 14.176C39.4343 15.2634 40.2395 16.0209 41.0205 16.7459L41.1483 16.9831C38.3904 17.5209 35.3796 15.6374 34.6554 12.9224C33.9312 10.2073 35.607 7.07509 38.2669 6.16936C38.0898 6.17506 37.9144 6.13333 37.7589 6.04848C37.6033 5.96364 37.4733 5.83876 37.3822 5.68678C37.2911 5.53481 37.2423 5.36125 37.2409 5.18409C37.2394 5.00692 37.2853 4.83257 37.3738 4.67911C36.6378 4.26651 35.8048 4.05838 34.9612 4.07632C33.5873 4.16644 32.3984 5.14435 31.6833 6.32108C30.9683 7.4978 30.6445 8.86324 30.3166 10.2006C29.9887 11.538 29.6338 12.9007 28.8692 14.0465C28.3397 14.8396 27.6321 15.498 26.8029 15.969C25.9738 16.4401 25.046 16.7109 24.0936 16.7598C23.1412 16.8086 22.1906 16.6342 21.3176 16.2504C20.4446 15.8666 19.6733 15.2841 19.0654 14.5494C20.0261 15.0152 21.1129 15.1534 22.1596 14.9427C23.2063 14.7321 24.1551 14.1842 24.8607 13.3831Z" fill="#2F2E41"/>
<path d="M63.5587 27.0294C62.308 27.0294 61.0853 26.6585 60.0454 25.9636C59.0054 25.2687 58.1949 24.2811 57.7162 23.1255C57.2376 21.97 57.1124 20.6985 57.3564 19.4718C57.6004 18.2451 58.2027 17.1183 59.0871 16.2339C59.9715 15.3494 61.0983 14.7472 62.325 14.5031C63.5517 14.2591 64.8232 14.3844 65.9788 14.863C67.1343 15.3416 68.122 16.1522 68.8168 17.1921C69.5117 18.2321 69.8826 19.4548 69.8826 20.7055C69.8807 22.3821 69.2138 23.9895 68.0283 25.175C66.8427 26.3606 65.2353 27.0275 63.5587 27.0294ZM63.5587 15.4356C62.5165 15.4356 61.4976 15.7447 60.6309 16.3237C59.7643 16.9028 59.0889 17.7259 58.69 18.6888C58.2911 19.6518 58.1868 20.7114 58.3901 21.7336C58.5934 22.7559 59.0954 23.6949 59.8324 24.4319C60.5694 25.1689 61.5084 25.6708 62.5306 25.8741C63.5529 26.0775 64.6125 25.9731 65.5754 25.5743C66.5384 25.1754 67.3614 24.4999 67.9405 23.6333C68.5196 22.7667 68.8286 21.7478 68.8286 20.7055C68.8271 19.3083 68.2713 17.9688 67.2834 16.9809C66.2954 15.9929 64.9559 15.4372 63.5587 15.4356Z" fill="#45AAF5"/>
<path d="M63.3512 12.8007C63.2114 12.8007 63.0774 12.7451 62.9786 12.6463C62.8797 12.5475 62.8242 12.4134 62.8242 12.2737V6.21331C62.8242 6.07354 62.8797 5.9395 62.9786 5.84067C63.0774 5.74184 63.2114 5.68632 63.3512 5.68632C63.491 5.68632 63.625 5.74184 63.7238 5.84067C63.8227 5.9395 63.8782 6.07354 63.8782 6.21331V12.2737C63.8782 12.4134 63.8227 12.5475 63.7238 12.6463C63.625 12.7451 63.491 12.8007 63.3512 12.8007Z" fill="#45AAF5"/>
<path d="M55.1269 21.0251H49.0665C48.9268 21.0251 48.7927 20.9696 48.6939 20.8707C48.5951 20.7719 48.5396 20.6379 48.5396 20.4981C48.5396 20.3583 48.5951 20.2243 48.6939 20.1255C48.7927 20.0266 48.9268 19.9711 49.0665 19.9711H55.1269C55.2667 19.9711 55.4007 20.0266 55.4995 20.1255C55.5984 20.2243 55.6539 20.3583 55.6539 20.4981C55.6539 20.6379 55.5984 20.7719 55.4995 20.8707C55.4007 20.9696 55.2667 21.0251 55.1269 21.0251Z" fill="#45AAF5"/>
<path d="M77.2602 21.0251H71.1998C71.0601 21.0251 70.926 20.9696 70.8272 20.8707C70.7284 20.7719 70.6729 20.6379 70.6729 20.4981C70.6729 20.3583 70.7284 20.2243 70.8272 20.1255C70.926 20.0266 71.0601 19.9711 71.1998 19.9711H77.2602C77.4 19.9711 77.534 20.0266 77.6329 20.1255C77.7317 20.2243 77.7872 20.3583 77.7872 20.4981C77.7872 20.6379 77.7317 20.7719 77.6329 20.8707C77.534 20.9696 77.4 21.0251 77.2602 21.0251Z" fill="#45AAF5"/>
<path d="M71.0333 15.263C70.9284 15.263 70.8259 15.2316 70.7389 15.173C70.6519 15.1144 70.5844 15.0312 70.5449 14.9339C70.5055 14.8367 70.496 14.7299 70.5177 14.6273C70.5393 14.5246 70.5911 14.4308 70.6664 14.3577L73.2043 11.8954C73.254 11.8471 73.3127 11.809 73.377 11.7834C73.4414 11.7578 73.5102 11.7451 73.5795 11.7461C73.6488 11.7471 73.7172 11.7618 73.7808 11.7892C73.8444 11.8167 73.9019 11.8564 73.9502 11.9061C73.9984 11.9558 74.0364 12.0146 74.0619 12.079C74.0874 12.1434 74.1 12.2122 74.0989 12.2815C74.0977 12.3508 74.083 12.4192 74.0554 12.4827C74.0279 12.5463 73.988 12.6038 73.9382 12.6519L71.4003 15.1142C71.3021 15.2098 71.1704 15.2632 71.0333 15.263Z" fill="#45AAF5"/>
<path d="M55.5568 15.263C55.4198 15.2631 55.2881 15.2098 55.1899 15.1142L52.6519 12.6519C52.6021 12.6038 52.5623 12.5463 52.5347 12.4827C52.5072 12.4192 52.4924 12.3508 52.4913 12.2815C52.4902 12.2122 52.5027 12.1434 52.5282 12.079C52.5537 12.0146 52.5917 11.9558 52.6399 11.9061C52.6882 11.8564 52.7458 11.8167 52.8094 11.7892C52.873 11.7618 52.9414 11.7471 53.0107 11.7461C53.0799 11.7451 53.1487 11.7578 53.2131 11.7834C53.2775 11.809 53.3361 11.8471 53.3858 11.8954L55.9237 14.3577C55.999 14.4308 56.0508 14.5246 56.0725 14.6273C56.0941 14.7299 56.0846 14.8367 56.0452 14.9339C56.0058 15.0312 55.9382 15.1144 55.8512 15.173C55.7642 15.2316 55.6617 15.263 55.5568 15.263Z" fill="#45AAF5"/>
<path d="M53.546 29.6643C53.4424 29.6643 53.3412 29.6337 53.2549 29.5765C53.1685 29.5193 53.101 29.4379 53.0607 29.3425C53.0203 29.2471 53.009 29.142 53.028 29.0402C53.0471 28.9384 53.0957 28.8445 53.1678 28.7701L55.7058 26.1565C55.8032 26.0564 55.9364 25.999 56.0761 25.997C56.2158 25.995 56.3506 26.0486 56.4508 26.1459C56.551 26.2433 56.6085 26.3764 56.6106 26.5161C56.6127 26.6558 56.5593 26.7906 56.462 26.8909L53.9241 29.5045C53.875 29.5551 53.8162 29.5954 53.7513 29.6228C53.6863 29.6503 53.6165 29.6644 53.546 29.6643Z" fill="#45AAF5"/>
<path d="M74.0982 30.1913C74.0279 30.1914 73.9583 30.1774 73.8935 30.1501C73.8287 30.1228 73.7701 30.0827 73.7211 30.0323L70.6562 26.8917C70.6077 26.8422 70.5695 26.7837 70.5437 26.7194C70.518 26.6551 70.5051 26.5864 70.5059 26.5171C70.5067 26.4479 70.5211 26.3794 70.5484 26.3158C70.5757 26.2521 70.6152 26.1945 70.6648 26.1461C70.7143 26.0977 70.773 26.0596 70.8373 26.0339C70.9016 26.0082 70.9703 25.9955 71.0396 25.9964C71.1088 25.9973 71.1772 26.0118 71.2409 26.0392C71.3045 26.0665 71.3621 26.1061 71.4104 26.1558L74.4753 29.2964C74.5478 29.3705 74.5967 29.4644 74.616 29.5663C74.6353 29.6682 74.6242 29.7735 74.5839 29.869C74.5436 29.9646 74.4761 30.0461 74.3897 30.1035C74.3033 30.1608 74.2019 30.1913 74.0982 30.1913Z" fill="#45AAF5"/>
<path d="M63.3512 35.4612C63.2114 35.4612 63.0774 35.4057 62.9786 35.3068C62.8797 35.208 62.8242 35.074 62.8242 34.9342V28.8738C62.8242 28.8046 62.8378 28.7361 62.8643 28.6722C62.8908 28.6082 62.9296 28.5501 62.9786 28.5012C63.0275 28.4523 63.0856 28.4134 63.1495 28.387C63.2135 28.3605 63.282 28.3468 63.3512 28.3468C63.4204 28.3468 63.4889 28.3605 63.5529 28.387C63.6168 28.4134 63.6749 28.4523 63.7238 28.5012C63.7728 28.5501 63.8116 28.6082 63.8381 28.6722C63.8646 28.7361 63.8782 28.8046 63.8782 28.8738V34.9342C63.8782 35.074 63.8227 35.208 63.7238 35.3068C63.625 35.4057 63.491 35.4612 63.3512 35.4612Z" fill="#45AAF5"/>
<path d="M56.7009 24.6398C56.648 24.7396 56.6029 24.8435 56.5663 24.9504L46.7753 27.5468L45.037 25.8049L42.0654 28.0846L45.621 32.4144L57.3448 27.4037C57.6995 27.6561 58.1226 27.7945 58.5578 27.8006C58.9931 27.8066 59.4199 27.68 59.7814 27.4376C60.143 27.1952 60.4222 26.8484 60.5819 26.4435C60.7416 26.0385 60.7742 25.5946 60.6754 25.1706C60.5766 24.7467 60.3511 24.3628 60.0289 24.0702C59.7067 23.7775 59.303 23.5899 58.8715 23.5322C58.44 23.4746 58.0012 23.5497 57.6135 23.7475C57.2257 23.9453 56.9074 24.2565 56.7008 24.6396L56.7009 24.6398Z" fill="#A0616A"/>
<path d="M42.6332 30.1145L37.0009 24.4814C36.7447 24.2254 36.5414 23.9214 36.4026 23.5868C36.2639 23.2522 36.1925 22.8936 36.1924 22.5314C36.1923 22.1692 36.2636 21.8105 36.4021 21.4759C36.5407 21.1412 36.7439 20.8371 37 20.581C37.2561 20.3249 37.5602 20.1218 37.8948 19.9832C38.2295 19.8446 38.5881 19.7733 38.9503 19.7734C39.3126 19.7735 39.6712 19.845 40.0058 19.9837C40.3404 20.1224 40.6443 20.3257 40.9003 20.5819L46.533 26.2146C46.7054 26.3869 46.8022 26.6206 46.8023 26.8643C46.8023 27.108 46.7055 27.3418 46.5332 27.5142L46.533 27.5144L43.9333 30.1142C43.7608 30.2863 43.527 30.3829 43.2834 30.3829C43.0397 30.3829 42.8059 30.2863 42.6334 30.1142L42.6332 30.1145Z" fill="#45AAF5"/>
<path d="M102.326 103.015H43.9736C31.3848 103.015 21.1431 92.6011 21.1431 79.8004C21.1431 66.9998 31.3848 56.5857 43.9736 56.5857H48.125C50.4089 51.9291 53.9283 47.9894 58.2989 45.1968C62.7334 42.3615 67.8865 40.8541 73.15 40.8525C87.7499 40.8525 99.9191 52.3333 101.052 67.0746H102.326C112.081 67.0746 120.017 75.1361 120.017 85.0449C120.017 94.9537 112.081 103.015 102.326 103.015ZM43.9736 57.5635C31.9239 57.5635 22.1208 67.5389 22.1208 79.8004C22.1208 92.0619 31.9239 102.037 43.9736 102.037H102.326C111.542 102.037 119.039 94.4146 119.039 85.0449C119.039 75.6752 111.542 68.0524 102.326 68.0524H100.135L100.107 67.5933C99.2264 53.1467 87.3854 41.8303 73.15 41.8303C62.8993 41.8303 53.3696 47.897 48.8719 57.2858L48.7389 57.5635H43.9736Z" fill="#3F3D56"/>
</g>
<defs>
<clipPath id="clip0_834_651">
<rect width="140" height="103.101" fill="white"/>
</clipPath>
</defs>
</svg>
